<svg id="Layer_1" data-name="Layer 1" xmlns="http://www.w3.org/2000/svg" viewBox="0 0 150 91.81"><defs><style>.cls-1{fill:#3d7f58;}</style></defs><path id="svg_10" data-name="svg 10" class="cls-1" d="M17.91,89.86l12.66-5.52L44.92,71.12c3.16-4.77,10.48-14,14.87-17.64L73,66.15l8.27,1.65c4.1,5.32,18.64,16.57,22,23.15,0,1.65,11-13.23,11-13.23l7.71,6.61c3.46,4.61,10.37,14.15,17.08,16.53l5,13.23,4.76,2.51C165.33,6.62-3.22-3.41.05,107.73Z" transform="translate(0 -29.1)"/><polygon class="cls-1" points="103.54 91.81 78.61 91.81 70.63 89.59 75.55 83.84 62.41 71.52 103.54 91.81"/><polygon id="svg_12" data-name="svg 12" class="cls-1" points="77.2 70.27 110.05 86.7 87.47 51.68 78.38 43.33 70.8 44.85 62.09 36.13 62.09 53.19 74.74 60.43 77.2 70.27"/><polygon class="cls-1" points="142.07 91.81 137.44 91.81 107.58 67 115.8 56.32 124.82 69.46 133.03 75.21 137.14 86.71 142.07 91.81"/></svg>