<svg xmlns="http://www.w3.org/2000/svg" viewBox="0 0 214.06 145.94"><defs><style>.cls-1{fill:#293F00;}</style></defs><g id="Layer_2" data-name="Layer 2"><g id="Capa_1" data-name="Capa 1"><path class="cls-1" d="M0,88.23c25.64-6.52,29,20.19,5.9,18.22v9.41H0Zm8.77,4.5a14.71,14.71,0,0,0-2.87.2v8.3C14.65,104,19.48,92.75,8.77,92.73Z"/><path class="cls-1" d="M41.35,113.94c-12.77,8.65-25.32-5-16.27-16.8,7.17-6.58,20.32-1.41,16.58,9.63H27.71c-.12,6.3,7.82,6.28,11.72,3.67ZM33,98.71c-3.16-.06-4.75,1.87-5.06,4.75h9C37.11,100.63,36,98.69,33,98.71Zm.68-11.92h5.66V88l-5,5.14h-3Z"/><path class="cls-1" d="M77.19,108.52a45.32,45.32,0,0,0,.4,7.38H73.72l-.8-2.91H72.4c-17.76,15.92-22.82-25.37-.79-17.86V88h5.58Zm-10,3.27c6.08.63,4.14-8.29,4.43-11.68C62.94,94.07,58.49,110.79,67.18,111.79Z"/><path class="cls-1" d="M83,96.36c22-6.78,15.76,4.62,18,19.54H96.45l-.92-3.11h-.48c-14.47,12.93-21-14.28-.2-9.41C96.4,97,87.79,99,84.45,100.59Zm7.3,15.35c3.08.09,5.18-2.28,4.62-5.1C88.54,104.08,83.59,110.31,90.27,111.71Z"/><path class="cls-1" d="M130.06,108.2c-.95-4.14-7.34-3.59-10.27-6.06-11.67-10.74,5.81-18.66,15.49-13l-1.87,4.94c-2.86-2.16-14.68-2.86-10.29,3,3.58,2.46,9.2,2.66,11.8,6.64,5.65,12.05-11.3,15.19-19.42,10.92l2-5C120.8,111.15,129.25,113.29,130.06,108.2Z"/><path class="cls-1" d="M158.09,113.94c-12.77,8.65-25.32-5-16.27-16.8,7.17-6.58,20.32-1.41,16.59,9.63h-14c-.12,6.3,7.82,6.28,11.72,3.67Zm-8.38-15.23c-3.16-.06-4.75,1.87-5.06,4.75h9C153.85,100.63,152.71,98.69,149.71,98.71Z"/><path class="cls-1" d="M176.23,100c-10.2-3.14-5.95,10.73-6.78,15.83h-5.58V94.93h4.38l.6,2.91h.52a5.85,5.85,0,0,1,7.66-3Z"/><path class="cls-1" d="M192.42,100c-10.2-3.14-5.95,10.73-6.78,15.83h-5.59V94.93h4.39l.6,2.91h.52a5.84,5.84,0,0,1,7.65-3Z"/><path class="cls-1" d="M196,96.36c22-6.78,15.76,4.61,18,19.54h-4.54l-.92-3.11h-.48c-14.46,12.93-21-14.28-.19-9.41,1.55-6.42-7.07-4.42-10.41-2.79Zm7.3,15.35c3.09.09,5.18-2.28,4.62-5.1C201.61,104.08,196.67,110.31,203.34,111.71Z"/><path class="cls-1" d="M57.44,52.77l11-4.79L80.9,36.5C83.65,32.35,90,24.38,93.82,21.18l11.49,11,7.18,1.43c3.56,4.62,16.19,14.39,19.14,20.11,0,1.43,9.58-11.49,9.58-11.49l6.7,5.74c3,4,9,12.29,14.83,14.36l4.31,11.49L171.18,76C185.48-19.52,39.09-28.23,41.93,68.29Z"/><polygon class="cls-1" points="107.51 72.81 103.23 77.8 110.17 79.73 131.82 79.73 96.1 62.11 107.51 72.81"/><polygon class="cls-1" points="108.94 61.03 137.47 75.3 117.86 44.88 109.96 37.63 103.38 38.95 95.81 31.38 95.81 46.19 106.8 52.48 108.94 61.03"/><polygon class="cls-1" points="161 75.3 157.43 65.31 150.3 60.32 142.46 48.91 135.33 58.18 161.26 79.73 165.28 79.73 161 75.3"/><path class="cls-1" d="M67.55,137.36H58.13v8.3H55.48V127.08h2.65V135h9.42v-7.94h2.66v18.58H67.55Z"/><path class="cls-1" d="M79.42,136.37c-.94-12.76,17.72-12.73,16.74,0C97.09,149.12,78.43,149.13,79.42,136.37Zm2.81,0c-.76,9.29,11.88,10,11.12,0C94.08,127.09,81.49,126.44,82.23,136.37Z"/><path class="cls-1" d="M117.42,129.42h-6.26v16.24h-2.65V129.42h-6.27v-2.34h15.18Z"/><path class="cls-1" d="M125.6,127.08h11.23v2.34h-8.58V135h7.83v2.34h-7.83v6H137v2.33H125.6Z"/><path class="cls-1" d="M158.59,145.66H146.43V127.08h2.66v16.25h9.5Z"/></g></g></svg>