<?xml version="1.0"?>
<svg width="150" height="150" xmlns="http://www.w3.org/2000/svg" xmlns:svg="http://www.w3.org/2000/svg">
 <defs>
  <style>.cls-1{fill:#293F00;}</style>
 </defs>
 <g class="layer">
  <title>Layer 1</title>
  <path class="cls-1" d="m25.44,87.77l11,-4.79l12.46,-11.48c2.75,-4.15 9.1,-12.12 12.92,-15.32l11.49,11l7.18,1.43c3.56,4.62 16.19,14.39 19.14,20.11c0,1.43 9.58,-11.49 9.58,-11.49l6.7,5.74c3,4 9,12.29 14.83,14.36l4.31,11.49l4.13,2.18c14.3,-95.52 -132.09,-104.23 -129.25,-7.71l15.51,-15.52z" id="svg_10"/>
  <polygon class="cls-1" id="svg_11" points="75.51000213623047,107.80999755859375 71.2300033569336,112.80000305175781 78.16999816894531,114.7300033569336 99.82000732421875,114.7300033569336 64.0999984741211,97.11000061035156 75.51000213623047,107.80999755859375 "/>
  <polygon class="cls-1" id="svg_12" points="76.94000244140625,96.02999877929688 105.47000122070312,110.30000305175781 85.86000061035156,79.8800048828125 77.95999908447266,72.6300048828125 71.37999725341797,73.95000457763672 63.80999755859375,66.37999725341797 63.80999755859375,81.19000244140625 74.80000305175781,87.4800033569336 76.94000244140625,96.02999877929688 "/>
  <polygon class="cls-1" id="svg_13" points="129,110.30000305175781 125.42999267578125,100.30999755859375 118.30000305175781,95.31999969482422 110.46000671386719,83.91000366210938 103.33000183105469,93.18000030517578 129.25999450683594,114.7300033569336 133.27999877929688,114.7300033569336 129,110.30000305175781 "/>
 </g>
</svg>