<svg xmlns="http://www.w3.org/2000/svg" viewBox="0 0 442.35 42.74"><defs><style>.cls-1{fill:#293f00;fill-rule:evenodd;}</style></defs><g id="Layer_2" data-name="Layer 2"><g id="BACKGROUND"><path class="cls-1" d="M180.93,42.74l-1-.65c-1.9-1.18-3.85-2.52-5.81-4-2.8-2.1-3.52-2.57-4.55-2.94a4.84,4.84,0,0,0-1.68-.3,8.89,8.89,0,0,0-1.7.19,4.68,4.68,0,0,1-.87.09,2.23,2.23,0,0,1-.83-.13c-.56-.23-1.08-.72-2.53-2.35-2.67-3-4-4.13-5.38-4.5a1.72,1.72,0,0,1-.38-.15.27.27,0,0,0-.24-.13.4.4,0,0,0-.26.12,1.09,1.09,0,0,1-.35.08c-1.33.14-2.66,1.37-4.93,4.55a31,31,0,0,1-4.65,5.57,33.76,33.76,0,0,1-5,3.69l-1.28.84H124.79l.42-.38a31.7,31.7,0,0,1,3.69-2.88,20.37,20.37,0,0,0,3.91-3.08c1-.93,1.05-1.07,1-1.23a.37.37,0,0,0-.22-.31h0c-.12,0-.29.08-1.32,1.07a19.15,19.15,0,0,1-3.12,2.53l-1.36.89c-.61.41-1.83,1.4-3.1,2.51l-1,.88h-9.35l-8.93,0,.33-.3c.4-.34,1.37-1.24,2.16-2a15.69,15.69,0,0,1,5-3.61,7,7,0,0,0,2.53-1.74,6,6,0,0,0,1-2c.81-2.36,1.07-2.75,2.13-3.25,2.24-1.05,3.47-2.19,6-5.56a8.75,8.75,0,0,1,2-2.27,11.8,11.8,0,0,1,1.13-.51c1.64-.65,2-1,4.36-3.3,1.73-1.75,2.6-2.7,3.33-3.6a3,3,0,0,1,.78-.76,41,41,0,0,0,4.31-4.21,31.92,31.92,0,0,1,5.06-4.8,38.65,38.65,0,0,0,3.49-3A7.43,7.43,0,0,1,151.31,0l.11,0V.86a12.55,12.55,0,0,0,.14,2.07c.28,1.75.26,2.43-.09,3.16s-.74.94-2.58,1.74a6.87,6.87,0,0,0-2.42,1.42,2,2,0,0,0-.74,1.74c0,.82.08,1,.94,2.77.78,1.57.82,1.76.7,2.24s-.43.93-2.14,2.81a15.21,15.21,0,0,1-4.88,3.89c-1.44.85-2.17,1.65-2.36,2.61,0,.2-.1.72-.14,1.13-.16,1.87-.42,2.27-2.33,3.57-.54.38-1.21.86-1.48,1.07a24.33,24.33,0,0,0-3,3,.31.31,0,0,0,.08.23.26.26,0,0,0,.22.1.6.6,0,0,0,.35-.14c.1-.08.67-.61,1.23-1.15a17.39,17.39,0,0,1,2.88-2.37c2.3-1.57,2.61-2,2.81-4.3a2.73,2.73,0,0,1,1-2.3A9.54,9.54,0,0,1,141.29,23a15.12,15.12,0,0,0,4.49-3.71c2-2.24,2.33-2.63,2.33-3.63,0-.68-.09-1-.78-2.23-1-1.76-1.1-2.42-.74-3.18a3.4,3.4,0,0,1,1.1-1.06c.17-.1.82-.41,1.55-.73a7.26,7.26,0,0,0,2.29-1.28c.91-.82,1.1-1.92.74-4.34a13.57,13.57,0,0,1-.17-2c0-.22,0-.59,0-.77l.07.05a19.82,19.82,0,0,1,2,2.62c.53.7,1.54,2,2.27,2.89a42.12,42.12,0,0,1,2.76,3.64,19,19,0,0,0,1.89,2.5,14.76,14.76,0,0,1,1.19,1.73c1.62,2.61,3.08,4.75,4.89,7.16.52.69,1.17,1.64,1.44,2.08.49.82.63,1,.8,1a.37.37,0,0,0,.33-.2c.15-.4-1.82-3.06-2.22-3.6-1.83-2.44-2.83-3.91-4.48-6.55l-.77-1.22.12-.06a10.65,10.65,0,0,0,1.05-.67,2.92,2.92,0,0,1,1.59-.71,1.72,1.72,0,0,1,.78.22,19.94,19.94,0,0,1,1.85,1.37,19.14,19.14,0,0,0,4.38,2.8,19.3,19.3,0,0,1,2.72,1.54,30.46,30.46,0,0,1,2.89,2.91c.11.15.48.84.86,1.55a13.46,13.46,0,0,0,2.69,3.85c1.65,1.85,2.11,2.6,2.28,3.65a6.21,6.21,0,0,0,.55,2c.55,1.1,1.48,2.16,4.35,4.92.58.56,1.49,1.52,2,2.14s1.68,1.82,2.53,2.69a16,16,0,0,1,1.86,2.07l.2.32c-.84,0-3.45,0-6.94,0Zm-8.32-15.36a.39.39,0,0,0-.32.16.29.29,0,0,0-.07.29c.05.16.23.23.42.28a3.22,3.22,0,0,1,1.17.9c.12.15.51.71,1,1.43a39,39,0,0,0,3.7,4.59c1,1.15,2.4,2.78,3.11,3.63.21.25,1.29,1.54,1.41,1.66a.52.52,0,0,0,.34.15.31.31,0,0,0,.31-.32c0-.21-1.54-2.07-4.57-5.53a37.13,37.13,0,0,1-3.63-4.48c-.36-.52-.74-1.07-.86-1.23a5,5,0,0,0-1.44-1.33A1.41,1.41,0,0,0,172.61,27.38Z"/><path class="cls-1" d="M72.39,42.74A24.17,24.17,0,0,1,74,40.61c.45-.53,1.09-1.3,1.42-1.71,1.15-1.43,6-7.82,7-9.22,1.15-1.59,1.38-1.74,2.12-1.91s.95-.36,1.89-1.33a23.92,23.92,0,0,0,3.26-4.36C92,18.79,93,17.47,94,16.64s2-1.69,3-2.57c1.25-1.13,1.6-1.32,2.09-1.32s1.1.48,1.8,1.41a7.22,7.22,0,0,1,1.11,2.2,6.67,6.67,0,0,0,1.38,2.45c.51.54.88.76,1.3.76a1.37,1.37,0,0,0,.66-.18,21.27,21.27,0,0,0,3.26-3.13c1.24-1.39,1.41-1.48,2-1.48.32,0,.41,0,1.2.4a2.86,2.86,0,0,0,1.28.45c.66,0,1.17-.35,2.66-1.72.38-.35,1.07-.93,1.53-1.29s1.27-1,1.78-1.47c1.41-1.22,1.89-1.57,2.37-1.66a8,8,0,0,0,0,2c.06.57.1,1.17.1,1.38a3.44,3.44,0,0,1-.93,2.39,8.61,8.61,0,0,1-2.16,1.55,17.08,17.08,0,0,0-3.83,2.94c-.49.47-1.26,1.17-1.68,1.54-1.12,1-2.94,2.63-3,2.8a.42.42,0,0,0,0,.43.32.32,0,0,0,.28.16c.06,0,.16,0,1.34-1.08l1.86-1.67.36-.31a7.66,7.66,0,0,0-.83,2.85c-.29,2.27-.55,2.72-2.79,4.75a18.12,18.12,0,0,0-3.59,3.94c-.47.68-.58.93-.5,1.12a.31.31,0,0,0,.24.19h0c.18,0,.32-.11.68-.65a16.1,16.1,0,0,1,3.28-3.72c.68-.61,1.47-1.36,1.73-1.63,1.09-1.15,1.37-1.85,1.68-4.17a7.28,7.28,0,0,1,.78-2.45A7.08,7.08,0,0,1,116.55,19a17.93,17.93,0,0,1,2.52-1.71c.62-.38,1.24-.78,1.44-.93a4.44,4.44,0,0,0,1.67-2.41,9.28,9.28,0,0,0,0-2.5,7.29,7.29,0,0,1,0-1.9l0-.11h.07a4.36,4.36,0,0,1,1.22.5A18,18,0,0,1,126,11.82a2,2,0,0,0,.85.59l.25,0a12.53,12.53,0,0,0,2.52-.45,8.35,8.35,0,0,1,2-.36c.81,0,1.32.35,2.41,1.39a8.48,8.48,0,0,0,1,.89h0L135,14a67.78,67.78,0,0,1-5.53,5.71,6.69,6.69,0,0,1-2,1.05,11.72,11.72,0,0,0-1.23.55,8.74,8.74,0,0,0-2.07,2.22c-2.52,3.39-3.52,4.36-5.67,5.45a5,5,0,0,0-1.33.84,8.68,8.68,0,0,0-1.36,2.8,5,5,0,0,1-1.09,2.13,8.44,8.44,0,0,1-2.57,1.61,15.8,15.8,0,0,0-4.86,3.57c-.72.7-1.75,1.65-2.24,2.08l-.83.73Z"/><path class="cls-1" d="M50.05,35.81c-.09-.1-.25-.3-.49-.6a28.54,28.54,0,0,0-4.33-4.83,4,4,0,0,0-.91-.43c-.31-.1-.59-.21-.66-.24a6.92,6.92,0,0,1-1.38-1.46c-.36-.46-1.27-1.43-2.2-2.36-.55-.54-1-1-1.2-1.21.77-.16,1.92-1,3.93-2.91,1.27-1.18,1.61-1.46,2.06-1.62a1.62,1.62,0,0,1,.61-.12,6.59,6.59,0,0,1,1,.1,4.36,4.36,0,0,0,.67.06,5,5,0,0,0,2.34-.91c1.57-.85,1.64-.88,2.17-1a1.78,1.78,0,0,1,.39,0,4.48,4.48,0,0,1,.62.06,13.67,13.67,0,0,1,3.13,1,2.92,2.92,0,0,0,1.19.41,1.32,1.32,0,0,0,.32-.05c.85-.23,3.05-2.24,5.35-4.87a15.78,15.78,0,0,1,2.8-2.77A.87.87,0,0,1,65.8,12h.12c.63.08,1.28.54,2.5,1.75.48.49,1,.94,1.09,1a6,6,0,0,0,2.59.81,6.7,6.7,0,0,1,2.25.74,10.91,10.91,0,0,0,1,.43,2.17,2.17,0,0,0,.59.07,4.22,4.22,0,0,0,1.16-.19A6.08,6.08,0,0,1,78,16.4a1,1,0,0,1,.24,0,2.9,2.9,0,0,1,1.71.73,3.42,3.42,0,0,0,2.35.81,10.4,10.4,0,0,0,1.12-.07c.92-.09,1.69-.15,2.45-.15a27.68,27.68,0,0,1,3.6.31,18.13,18.13,0,0,0,1.9.18h.21l-.35.47c-.34.46-1.3,1.84-2.18,3.15s-1.7,2.52-1.91,2.8a17.44,17.44,0,0,1-2.08,2.2,3.5,3.5,0,0,1-.69.27,4.52,4.52,0,0,0-.81.3A6.85,6.85,0,0,0,82,29.17c-.33.46-1.17,1.57-1.85,2.46L79,33.13l0,0c-.24-.12-2.11-1.46-2.79-2-.33-.26-1.1-.93-1.69-1.45-2-1.81-2.67-2.2-3.84-2.36a2,2,0,0,1-.79-.2c-.26-.16-.51-.57-.87-1.42-1.07-2.54-2.27-3.88-3.48-3.88a1.79,1.79,0,0,0-.8.2,7.71,7.71,0,0,0-2,2.08l-1.57,2.15c-.47.65-1.13,1.59-1.41,2-1.49,2.38-1.85,2.72-3.21,3.08a2.89,2.89,0,0,0-2.1,1.45A8.27,8.27,0,0,1,51,35.37Z"/><path class="cls-1" d="M44.12,42.74l-.44-.61a39.92,39.92,0,0,0-4.18-4.77,16.21,16.21,0,0,1-3.11-3.81A10.05,10.05,0,0,0,33.1,30c-1.64-1.22-2.11-1.68-2.47-2.46a4.87,4.87,0,0,1-.38-2.66V23.24L30,22.7a7.76,7.76,0,0,0-2.18-2.27c-1.48-1.2-2.07-1.87-2.33-2.65a2.2,2.2,0,0,1-.05-1.31.28.28,0,0,1,.05-.1s0,0,.05,0c1.47.26,3.37,1.68,6.56,4.89.63.62,1.31,1.25,1.51,1.39a3.91,3.91,0,0,0,.94.42,7.45,7.45,0,0,1,1.79.85,8.26,8.26,0,0,0,1.07.54,4.5,4.5,0,0,1,1.23,1A29.71,29.71,0,0,1,42,29.09a3.62,3.62,0,0,0,1.88,1.49,7.18,7.18,0,0,1,.74.29,16.24,16.24,0,0,1,2.94,3.05c1.06,1.31,1.4,1.75,3,3.86.52.71,1.65,2.15,2.44,3.14l1.43,1.79c-.55,0-2.07,0-5,0Z"/><path class="cls-1" d="M32.88,42.74l-1.47-1.45C27.86,37.81,26.34,36.71,24,36a12,12,0,0,1-1.27-.48,6.32,6.32,0,0,1-1.87-1.94,31.81,31.81,0,0,0-2.2-3.19,4.4,4.4,0,0,0-1.49-1.18A2.08,2.08,0,0,0,16.13,29,2.36,2.36,0,0,0,15,29.2a9.88,9.88,0,0,0-3.47,3.06c-.42.53-1.53,2-2.4,3.16s-2.35,3.09-3.19,4.14-1.73,2.19-2,2.59l-.44.59H.12l-.06-.1a1.18,1.18,0,0,1,.18-1l1-1.68.1-.19c1-1.77,2.56-4.36,3.86-6.45a103,103,0,0,1,7.71-11.19,38.29,38.29,0,0,1,3.26-3.22c1-.84,1.56-1.24,2.13-1.24a3.11,3.11,0,0,1,1.27.4,2.42,2.42,0,0,0,1.18.39h.06c.55,0,1-.23,2.33-1.08a12.84,12.84,0,0,1,1.31-.78l.28-.1a3.74,3.74,0,0,0,.07,1.49c.27.88,1,1.79,2.57,3a9.42,9.42,0,0,1,1.82,1.71c.37.57.4.71.41,2.48,0,1.59,0,1.65.2,2.17.41,1.16,1,1.85,2.86,3.22A9.46,9.46,0,0,1,35.79,34a18.63,18.63,0,0,0,3.54,4.28c.9.9,2,2,2.32,2.48.51.6,1.22,1.52,1.53,2l-5,0Z"/><path class="cls-1" d="M196,42.74l-.42-.66a13.52,13.52,0,0,0-2.15-2.45c-.92-.93-2.1-2.18-2.63-2.78s-1.5-1.6-2.13-2.19c-3.36-3.18-4-4.12-4.32-5.93a4.26,4.26,0,0,0-.79-2.14,19.85,19.85,0,0,0-2-2.52,12.48,12.48,0,0,1-2.22-3.24,8.85,8.85,0,0,0-1.76-2.65l-.2-.21a4.19,4.19,0,0,0,.48-.06,4.3,4.3,0,0,1,.73-.07h.1a7.89,7.89,0,0,1,3.27,1.65,38.06,38.06,0,0,0,3.33,2.17c2.13,1.29,3,1.7,3.7,1.7a1.34,1.34,0,0,0,.78-.25,7.24,7.24,0,0,0,.91-1c1-1.37,1.6-1.81,3.84-3a14.61,14.61,0,0,1,1.38-.67,4.24,4.24,0,0,0-.84,1.14,3,3,0,0,0,.22,2.93,11.85,11.85,0,0,0,1.52,1.91,9.35,9.35,0,0,1,1.61,2.13,1.15,1.15,0,0,1,.15.77,3,3,0,0,1-.24,1,2.54,2.54,0,0,0-.13,2.38c.47,1,1.25,1.54,4.18,3.07a21,21,0,0,1,5.21,3.49c.57.5.79.64,1,.64a.29.29,0,0,0,.28-.21c.1-.24,0-.34-1.42-1.54a20.78,20.78,0,0,0-4.9-3.14,13.63,13.63,0,0,1-3.2-2,1.83,1.83,0,0,1-.62-1.22c0-.3,0-.41.27-1.09a3.1,3.1,0,0,0,.32-1.4,1.87,1.87,0,0,0-.21-1,10.52,10.52,0,0,0-1.73-2.29c-1.26-1.39-1.69-2.05-1.84-2.85a2.76,2.76,0,0,1,1.55-2.6l.33-.16.49.25a11.2,11.2,0,0,1,2.4,1.75,12.41,12.41,0,0,0,1.22,1,15.27,15.27,0,0,1,2.3,2.36,12.56,12.56,0,0,0,1.9,2.07,6,6,0,0,0,2.72,1.29c.88.21,1,.3,2.08,1.61.86,1,2,2.24,5.17,5.67.32.34,1.35,1.35,1.66,1.35s.28-.09.31-.17-.08-.41-.77-1.06c-1.09-1-4.47-4.68-5.94-6.41-1-1.22-1.39-1.49-2.18-1.67a5.43,5.43,0,0,1-2.58-1.16,12.13,12.13,0,0,1-1.83-2c-.27-.33-.66-.77-.87-1l-.14-.14a4.82,4.82,0,0,0,2.25-1.23,4.12,4.12,0,0,1,2.08-1.1,2.45,2.45,0,0,1,.48,0c1.61,0,3.81,1,5.74,2.71a50.21,50.21,0,0,1,3.68,3.72C220,29,221,30.47,224.57,36.63a41.3,41.3,0,0,0,2.79,4.5c.35.49.71,1,.82,1.19a2.68,2.68,0,0,0,.25.37c-.81.05-4.51.05-16.18.05H196Zm1-4.23a.27.27,0,0,0-.23.14.56.56,0,0,0,.06.55c.11.17,1.26,1.48,1.53,1.48h.06a.25.25,0,0,0,.19-.19c.05-.17,0-.38-.61-1-.34-.37-.61-.69-.66-.75A.46.46,0,0,0,197,38.51Zm-8.71-8.36c-.09,0-.24.06-.24.29,0,.43,2.82,3,3.72,3.72s3.19,2.86,3.76,3.45a.81.81,0,0,0,.52.31.31.31,0,0,0,.29-.21c.06-.16,0-.33-.34-.65-.81-.82-2.81-2.64-3.89-3.55-.7-.58-1.75-1.54-2.34-2.14C188.68,30.32,188.43,30.15,188.24,30.15Z"/><path class="cls-1" d="M57.2,42.73l-1.81,0L54,40.94c-1.32-1.64-3-3.87-3.47-4.49l0,0,.88-.44a8.83,8.83,0,0,0,3.56-2.71c.76-1,.8-1,1.73-1.24a4.43,4.43,0,0,0,2.92-2.24l.91-1.41c.45-.69.83-1.22,2.8-3.9a11.37,11.37,0,0,1,1.37-1.59A4.61,4.61,0,0,0,64.22,26c.31,2.23.31,2.24.24,2.75-.12,1-.48,1.64-1.65,2.89-1.62,1.74-1.88,2.38-2,4.89a8.66,8.66,0,0,1-1,4.26,17,17,0,0,0-.68,1.59l-.1.33Z"/><path class="cls-1" d="M65.55,42.74c-3.41,0-5.26,0-5.79,0a1.8,1.8,0,0,1,.05-.19,12.89,12.89,0,0,1,.52-1.18,9.49,9.49,0,0,0,1.16-4.62c.15-2.44.36-3,1.85-4.54a5.7,5.7,0,0,0,1.72-2.66,7.25,7.25,0,0,0,0-2.83,6.66,6.66,0,0,1,0-2.8,3.07,3.07,0,0,1,.74-1.21.21.21,0,0,1,.12-.06c.15,0,.46.3.78.61a7,7,0,0,1,1.51,2.42,5,5,0,0,0,1.1,1.92,2.19,2.19,0,0,0,1.4.49c.86.12,1.49.52,3.21,2.05.54.48,1.28,1.13,1.64,1.42.66.54,2.53,1.9,2.93,2.14a.35.35,0,0,0,.09.06c-.44.6-2.69,3.55-3.59,4.66-.26.33-.91,1.11-1.44,1.74A23.62,23.62,0,0,0,72,42.05l-.46.69Z"/><path class="cls-1" d="M147,42.73l-6.18,0,.65-.42A31.67,31.67,0,0,0,147,38a34.62,34.62,0,0,0,3.87-4.79,22.61,22.61,0,0,1,2.48-3.09A4.49,4.49,0,0,1,155,28.93l.2-.07a.39.39,0,0,0,0,.06,3.3,3.3,0,0,0,.16,2.67A8.15,8.15,0,0,0,157,33.82a11.4,11.4,0,0,1,2,2.52c1.36,2.17,2.2,2.92,5.6,5,.54.33,1.38.85,1.86,1.16l.38.24-6.21,0H147Z"/><path class="cls-1" d="M167.07,42c-.62-.4-1.65-1.05-2.29-1.43a18.25,18.25,0,0,1-3.75-2.7A8.93,8.93,0,0,1,159.61,36a14,14,0,0,0-2.08-2.69,7.8,7.8,0,0,1-1.69-2.27,2.4,2.4,0,0,1-.14-1,1.64,1.64,0,0,1,.16-1c.13-.26.17-.26.22-.26a1.88,1.88,0,0,1,.45.12c1.13.39,2.48,1.56,4.8,4.19,2.09,2.36,2.54,2.69,3.73,2.76h.29a5.39,5.39,0,0,0,1.08-.13,8.37,8.37,0,0,1,1.46-.14,3.59,3.59,0,0,1,1,.1c1,.26,1.93.83,4.54,2.78,2.39,1.79,4.11,3,6.09,4.21l-5.36,0h-5.94Z"/><path class="cls-1" d="M6,42.74c-.43,0-1.23,0-1.63,0C4.78,42.12,6,40.59,6.44,40c.82-1,2.38-3,3.46-4.49a34.09,34.09,0,0,1,3.59-4.42,5.62,5.62,0,0,1,1.87-1.28l.27-.08a2.79,2.79,0,0,0-.28.42,2,2,0,0,0-.19,1.11,5.65,5.65,0,0,0,.22,1.56A4.24,4.24,0,0,1,15.54,35a2.75,2.75,0,0,1-1.24,1.25c-2,1.2-2.35,1.56-3.08,3a10,10,0,0,1-.58,1,11.11,11.11,0,0,1-2.08,2l-.67.51Z"/><path class="cls-1" d="M20.4,42.74c-5.39,0-9.81,0-11.25,0l.21-.17a10.44,10.44,0,0,0,1.83-1.8,12.3,12.3,0,0,0,.71-1.21A5.2,5.2,0,0,1,14.47,37c1.17-.71,1.61-1.19,1.81-2a4.48,4.48,0,0,0-.2-2.29c-.11-.52-.22-1.06-.25-1.23a1.5,1.5,0,0,1,.7-1.52.59.59,0,0,1,.29-.1,1,1,0,0,1,.52.24,7.23,7.23,0,0,1,1.73,2l1.12,1.69A7,7,0,0,0,22,35.9a5.51,5.51,0,0,0,1.63.71,16.48,16.48,0,0,1,1.65.66,24.44,24.44,0,0,1,5.6,4.61l.86.86Z"/><path class="cls-1" d="M394.85,42.74l-1-.65c-1.89-1.18-3.84-2.52-5.8-4-2.8-2.1-3.52-2.57-4.56-2.94a4.74,4.74,0,0,0-1.67-.3,8.89,8.89,0,0,0-1.7.19,4.68,4.68,0,0,1-.87.09,2.23,2.23,0,0,1-.83-.13c-.56-.23-1.08-.72-2.54-2.35-2.66-3-4-4.13-5.38-4.5a1.54,1.54,0,0,1-.37-.15.28.28,0,0,0-.24-.13.43.43,0,0,0-.27.12,1,1,0,0,1-.34.08c-1.33.14-2.67,1.37-4.93,4.55a31,31,0,0,1-4.65,5.57,34.31,34.31,0,0,1-5,3.69l-1.29.84H338.71l.42-.38a31.7,31.7,0,0,1,3.69-2.88,20.3,20.3,0,0,0,3.9-3.08c1-.93,1.06-1.07,1-1.23a.36.36,0,0,0-.23-.31h0c-.12,0-.28.08-1.31,1.07a18.78,18.78,0,0,1-3.13,2.53l-1.35.89a38.07,38.07,0,0,0-3.1,2.51l-1,.88h-9.35l-8.94,0,.34-.3c.4-.34,1.36-1.24,2.16-2a15.59,15.59,0,0,1,5.05-3.61,7,7,0,0,0,2.53-1.74,6,6,0,0,0,1-2c.81-2.36,1.07-2.75,2.13-3.25,2.24-1.05,3.47-2.19,6-5.56a8.75,8.75,0,0,1,2.05-2.27,11.8,11.8,0,0,1,1.13-.51c1.64-.65,2.05-1,4.35-3.3a47.58,47.58,0,0,0,3.34-3.6,3,3,0,0,1,.78-.76,42,42,0,0,0,4.31-4.21,31.5,31.5,0,0,1,5.06-4.8,38.65,38.65,0,0,0,3.49-3A7.31,7.31,0,0,1,365.23,0l.1,0V.86a13.63,13.63,0,0,0,.15,2.07c.28,1.75.25,2.43-.1,3.16s-.74.94-2.57,1.74a6.87,6.87,0,0,0-2.42,1.42,2,2,0,0,0-.75,1.74c0,.82.08,1,.95,2.77.78,1.57.82,1.76.7,2.24s-.43.93-2.14,2.81a15.21,15.21,0,0,1-4.88,3.89c-1.44.85-2.17,1.65-2.36,2.61,0,.2-.1.72-.14,1.13-.16,1.87-.43,2.27-2.33,3.57-.54.38-1.22.86-1.48,1.07a23.76,23.76,0,0,0-3,3,.36.36,0,0,0,.08.23.29.29,0,0,0,.23.1.6.6,0,0,0,.35-.14c.1-.08.67-.61,1.23-1.15a17.77,17.77,0,0,1,2.87-2.37c2.3-1.57,2.62-2,2.81-4.3a2.76,2.76,0,0,1,1-2.3A9.54,9.54,0,0,1,355.21,23a15.09,15.09,0,0,0,4.48-3.71c2.05-2.24,2.34-2.63,2.34-3.63,0-.68-.1-1-.79-2.23-.94-1.76-1.09-2.42-.73-3.18a3.4,3.4,0,0,1,1.1-1.06c.17-.1.82-.41,1.54-.73a7,7,0,0,0,2.29-1.28c.92-.82,1.11-1.92.75-4.34a13.57,13.57,0,0,1-.17-2c0-.22,0-.59,0-.77l.07.05a19.82,19.82,0,0,1,2,2.62c.52.7,1.54,2,2.26,2.89a40.12,40.12,0,0,1,2.76,3.64,21,21,0,0,0,1.89,2.5,13.06,13.06,0,0,1,1.2,1.73c1.61,2.61,3.08,4.75,4.89,7.16.52.69,1.17,1.64,1.44,2.08.49.82.63,1,.8,1a.37.37,0,0,0,.33-.2c.15-.4-1.82-3.06-2.22-3.6-1.83-2.44-2.84-3.91-4.49-6.55l-.76-1.22.12-.06a9.67,9.67,0,0,0,1-.67,2.94,2.94,0,0,1,1.6-.71,1.72,1.72,0,0,1,.78.22,22,22,0,0,1,1.84,1.37,19.59,19.59,0,0,0,4.38,2.8,19,19,0,0,1,2.73,1.54,30.46,30.46,0,0,1,2.89,2.91c.11.15.48.84.86,1.55a13.26,13.26,0,0,0,2.69,3.85c1.64,1.85,2.11,2.6,2.28,3.65a6.52,6.52,0,0,0,.54,2c.55,1.1,1.49,2.16,4.35,4.92.59.56,1.5,1.52,2,2.14s1.68,1.82,2.54,2.69a16.82,16.82,0,0,1,1.86,2.07l.2.32c-.84,0-3.45,0-6.94,0Zm-8.32-15.36a.39.39,0,0,0-.32.16.3.3,0,0,0-.08.29c.05.16.24.23.43.28a3.22,3.22,0,0,1,1.17.9c.11.15.51.71,1,1.43A37.57,37.57,0,0,0,392.42,35c1,1.15,2.41,2.78,3.12,3.63.21.25,1.28,1.54,1.41,1.66a.52.52,0,0,0,.34.15.31.31,0,0,0,.31-.32c0-.21-1.54-2.07-4.57-5.53a37.13,37.13,0,0,1-3.63-4.48l-.86-1.23a5,5,0,0,0-1.44-1.33A1.41,1.41,0,0,0,386.53,27.38Z"/><path class="cls-1" d="M286.31,42.74A24.17,24.17,0,0,1,288,40.61c.45-.53,1.09-1.3,1.42-1.71,1.15-1.43,6-7.82,7-9.22,1.16-1.59,1.38-1.74,2.12-1.91s1-.36,1.9-1.33a23.92,23.92,0,0,0,3.26-4.36c2.18-3.29,3.21-4.61,4.24-5.44s2-1.69,3-2.57c1.25-1.13,1.6-1.32,2.09-1.32s1.1.48,1.8,1.41a7.45,7.45,0,0,1,1.11,2.2,6.53,6.53,0,0,0,1.38,2.45,1.81,1.81,0,0,0,1.29.76,1.41,1.41,0,0,0,.67-.18,21.27,21.27,0,0,0,3.26-3.13c1.23-1.39,1.41-1.48,2-1.48.32,0,.4,0,1.2.4a2.82,2.82,0,0,0,1.28.45c.66,0,1.17-.35,2.65-1.72.39-.35,1.08-.93,1.54-1.29s1.27-1,1.78-1.47c1.41-1.22,1.89-1.57,2.36-1.66a8.63,8.63,0,0,0,0,2c.06.57.1,1.17.1,1.38a3.49,3.49,0,0,1-.93,2.39,8.61,8.61,0,0,1-2.16,1.55,17.08,17.08,0,0,0-3.83,2.94c-.5.47-1.26,1.17-1.68,1.54-1.12,1-2.94,2.63-3.06,2.8a.42.42,0,0,0,0,.43.32.32,0,0,0,.27.16c.06,0,.17,0,1.35-1.08l1.86-1.67.36-.31a7.48,7.48,0,0,0-.83,2.85c-.29,2.27-.55,2.72-2.79,4.75a17.86,17.86,0,0,0-3.59,3.94c-.47.68-.58.93-.5,1.12a.29.29,0,0,0,.24.19h0c.18,0,.32-.11.68-.65a15.64,15.64,0,0,1,3.28-3.72c.68-.61,1.47-1.36,1.72-1.63,1.1-1.15,1.38-1.85,1.69-4.17a7.28,7.28,0,0,1,.78-2.45A7.06,7.06,0,0,1,330.46,19,17.93,17.93,0,0,1,333,17.28c.63-.38,1.25-.78,1.45-.93a4.55,4.55,0,0,0,1.67-2.41,9.28,9.28,0,0,0,0-2.5,7.29,7.29,0,0,1,0-1.9.49.49,0,0,1,0-.11h.07a4.48,4.48,0,0,1,1.22.5,18,18,0,0,1,2.44,1.88,2,2,0,0,0,.86.59l.25,0a12.65,12.65,0,0,0,2.52-.45,8.27,8.27,0,0,1,2-.36c.81,0,1.31.35,2.4,1.39a10.3,10.3,0,0,0,1,.89h0l-.07.09a67.78,67.78,0,0,1-5.53,5.71,6.69,6.69,0,0,1-1.95,1.05,11.72,11.72,0,0,0-1.23.55,8.56,8.56,0,0,0-2.07,2.22c-2.52,3.39-3.53,4.36-5.68,5.45a5.36,5.36,0,0,0-1.33.84,8.72,8.72,0,0,0-1.35,2.8,4.92,4.92,0,0,1-1.1,2.13,8.18,8.18,0,0,1-2.56,1.61,16,16,0,0,0-4.87,3.57c-.71.7-1.74,1.65-2.23,2.08l-.83.73Z"/><path class="cls-1" d="M264,35.81c-.08-.1-.25-.3-.48-.6a28.54,28.54,0,0,0-4.33-4.83,3.86,3.86,0,0,0-.92-.43c-.3-.1-.58-.21-.65-.24a6.65,6.65,0,0,1-1.38-1.46c-.36-.46-1.27-1.43-2.2-2.36-.55-.54-1-1-1.2-1.21.77-.16,1.92-1,3.93-2.91,1.26-1.18,1.61-1.46,2-1.62a1.71,1.71,0,0,1,.62-.12,6.36,6.36,0,0,1,.94.1,4.48,4.48,0,0,0,.68.06,5,5,0,0,0,2.34-.91c1.56-.85,1.64-.88,2.17-1a1.78,1.78,0,0,1,.39,0,4.48,4.48,0,0,1,.62.06,13.44,13.44,0,0,1,3.12,1,3,3,0,0,0,1.19.41,1.32,1.32,0,0,0,.33-.05c.85-.23,3.05-2.24,5.34-4.87a16.55,16.55,0,0,1,2.8-2.77.9.9,0,0,1,.4-.12h.12c.63.08,1.28.54,2.5,1.75a14.9,14.9,0,0,0,1.09,1,6,6,0,0,0,2.59.81,6.77,6.77,0,0,1,2.25.74,10.91,10.91,0,0,0,1,.43,2.1,2.1,0,0,0,.58.07,4.1,4.1,0,0,0,1.16-.19,6.67,6.67,0,0,1,.92-.21,1,1,0,0,1,.24,0,2.88,2.88,0,0,1,1.71.73,3.44,3.44,0,0,0,2.35.81,10.42,10.42,0,0,0,1.13-.07c.92-.09,1.69-.15,2.45-.15a27.41,27.41,0,0,1,3.59.31,18.23,18.23,0,0,0,1.91.18h.21l-.35.47c-.35.46-1.31,1.84-2.18,3.15s-1.7,2.52-1.91,2.8A18.18,18.18,0,0,1,299,26.8a3.35,3.35,0,0,1-.68.27,4.25,4.25,0,0,0-.81.3,6.68,6.68,0,0,0-1.63,1.8c-.34.46-1.17,1.57-1.85,2.46l-1.15,1.5,0,0c-.24-.12-2.11-1.46-2.79-2-.33-.26-1.1-.93-1.69-1.45-2-1.81-2.68-2.2-3.84-2.36a2.06,2.06,0,0,1-.8-.2,3.25,3.25,0,0,1-.86-1.42c-1.07-2.54-2.28-3.88-3.49-3.88a1.75,1.75,0,0,0-.79.2,7.71,7.71,0,0,0-2,2.08L275,26.22c-.48.65-1.13,1.59-1.41,2-1.49,2.38-1.85,2.72-3.22,3.08a2.89,2.89,0,0,0-2.09,1.45,8.24,8.24,0,0,1-3.4,2.59Z"/><path class="cls-1" d="M258,42.74l-.44-.61a39.27,39.27,0,0,0-4.19-4.77,16.11,16.11,0,0,1-3.1-3.81A10.14,10.14,0,0,0,247,30c-1.65-1.22-2.11-1.68-2.48-2.46a5,5,0,0,1-.37-2.66V23.24l-.27-.54a7.55,7.55,0,0,0-2.17-2.27c-1.48-1.2-2.07-1.87-2.34-2.65a2.38,2.38,0,0,1,0-1.31.47.47,0,0,1,.06-.1s0,0,0,0c1.47.26,3.37,1.68,6.56,4.89a19.35,19.35,0,0,0,1.51,1.39,3.91,3.91,0,0,0,.94.42,7.45,7.45,0,0,1,1.79.85,7.67,7.67,0,0,0,1.07.54,4.66,4.66,0,0,1,1.23,1A30.51,30.51,0,0,1,256,29.09a3.62,3.62,0,0,0,1.88,1.49c.24.08.57.21.74.29a16.58,16.58,0,0,1,2.94,3.05c1.05,1.31,1.4,1.75,3,3.86.51.71,1.64,2.15,2.44,3.14l1.43,1.79c-.55,0-2.07,0-5,0Z"/><path class="cls-1" d="M246.8,42.74l-1.48-1.45c-3.54-3.48-5.06-4.58-7.38-5.34a12.9,12.9,0,0,1-1.27-.48,6.31,6.31,0,0,1-1.86-1.94,34,34,0,0,0-2.2-3.19,4.5,4.5,0,0,0-1.49-1.18,2.08,2.08,0,0,0-1.07-.17,2.42,2.42,0,0,0-1.19.21,10,10,0,0,0-3.46,3.06c-.42.53-1.53,2-2.4,3.16s-2.35,3.09-3.19,4.14-1.73,2.19-2,2.59l-.44.59H214l-.06-.1a1.17,1.17,0,0,1,.17-1c.12-.19.53-.91,1-1.68l.1-.19c1-1.77,2.55-4.36,3.86-6.45a103,103,0,0,1,7.71-11.19A39.64,39.64,0,0,1,230,18.86c1-.84,1.56-1.24,2.14-1.24a3,3,0,0,1,1.26.4,2.48,2.48,0,0,0,1.19.39h.06c.55,0,1-.23,2.33-1.08a12.84,12.84,0,0,1,1.31-.78l.28-.1a3.74,3.74,0,0,0,.07,1.49c.26.88,1,1.79,2.57,3a9.42,9.42,0,0,1,1.82,1.71c.37.57.4.71.41,2.48,0,1.59,0,1.65.2,2.17.41,1.16,1,1.85,2.86,3.22A9.46,9.46,0,0,1,249.71,34a18.63,18.63,0,0,0,3.54,4.28c.89.9,2,2,2.32,2.48.51.6,1.21,1.52,1.53,2l-5,0Z"/><path class="cls-1" d="M409.88,42.74l-.42-.66a14.44,14.44,0,0,0-2.15-2.45c-.92-.93-2.1-2.18-2.63-2.78s-1.5-1.6-2.13-2.19c-3.36-3.18-4.05-4.12-4.32-5.93a4.26,4.26,0,0,0-.79-2.14,20.84,20.84,0,0,0-2-2.52,12,12,0,0,1-2.22-3.24,8.85,8.85,0,0,0-1.76-2.65l-.2-.21a4.49,4.49,0,0,0,.48-.06,4.28,4.28,0,0,1,.72-.07h.1a7.91,7.91,0,0,1,3.28,1.65,39.33,39.33,0,0,0,3.32,2.17c2.14,1.29,3,1.7,3.71,1.7a1.34,1.34,0,0,0,.78-.25,7.24,7.24,0,0,0,.91-1c1-1.37,1.6-1.81,3.84-3a14.61,14.61,0,0,1,1.38-.67,4.24,4.24,0,0,0-.84,1.14,3,3,0,0,0,.22,2.93,12.23,12.23,0,0,0,1.51,1.91,9.49,9.49,0,0,1,1.62,2.13,1.15,1.15,0,0,1,.15.77,3.67,3.67,0,0,1-.24,1,2.58,2.58,0,0,0-.14,2.38c.47,1,1.26,1.54,4.19,3.07a21,21,0,0,1,5.21,3.49c.57.5.78.64,1,.64a.29.29,0,0,0,.28-.21c.09-.24,0-.34-1.42-1.54a20.78,20.78,0,0,0-4.9-3.14,14,14,0,0,1-3.21-2,1.86,1.86,0,0,1-.61-1.22c0-.3,0-.41.27-1.09a3.07,3.07,0,0,0,.31-1.4,1.79,1.79,0,0,0-.2-1,10.87,10.87,0,0,0-1.73-2.29c-1.26-1.39-1.69-2.05-1.84-2.85a2.74,2.74,0,0,1,1.55-2.6l.33-.16.49.25a11.16,11.16,0,0,1,2.39,1.75,13.69,13.69,0,0,0,1.23,1,15.27,15.27,0,0,1,2.3,2.36,12.1,12.1,0,0,0,1.9,2.07,5.91,5.91,0,0,0,2.72,1.29c.88.21,1,.3,2.08,1.61.86,1,2,2.24,5.17,5.67.32.34,1.35,1.35,1.66,1.35s.27-.09.3-.17-.08-.41-.76-1.06c-1.09-1-4.47-4.68-5.94-6.41-1-1.22-1.39-1.49-2.18-1.67A5.52,5.52,0,0,1,420,25.24a12.79,12.79,0,0,1-1.82-2c-.27-.33-.66-.77-.88-1l-.14-.14a4.8,4.8,0,0,0,2.26-1.23,4.08,4.08,0,0,1,2.08-1.1,2.45,2.45,0,0,1,.48,0c1.61,0,3.81,1,5.74,2.71a50.21,50.21,0,0,1,3.68,3.72c2.54,2.85,3.53,4.31,7.09,10.47a42.44,42.44,0,0,0,2.8,4.5c.35.49.71,1,.82,1.19a2.68,2.68,0,0,0,.25.37c-.82.05-4.51.05-16.18.05H409.88Zm1-4.23a.29.29,0,0,0-.24.14.59.59,0,0,0,.07.55c.1.17,1.25,1.48,1.53,1.48h.06a.27.27,0,0,0,.19-.19c0-.17,0-.38-.61-1-.34-.37-.62-.69-.66-.75A.5.5,0,0,0,410.87,38.51Zm-8.71-8.36a.26.26,0,0,0-.25.29c0,.43,2.83,3,3.72,3.72s3.2,2.86,3.76,3.45a.84.84,0,0,0,.52.31.31.31,0,0,0,.3-.21c.06-.16,0-.33-.34-.65-.81-.82-2.81-2.64-3.9-3.55-.69-.58-1.74-1.54-2.34-2.14C402.59,30.32,402.35,30.15,402.16,30.15Z"/><path class="cls-1" d="M271.12,42.73l-1.81,0-1.42-1.77c-1.33-1.64-3.05-3.87-3.47-4.49l0,0,.87-.44a8.69,8.69,0,0,0,3.56-2.71c.77-1,.81-1,1.74-1.24a4.41,4.41,0,0,0,2.91-2.24c.26-.39.66-1,.91-1.41.46-.69.83-1.22,2.81-3.9a10.79,10.79,0,0,1,1.36-1.59,4.67,4.67,0,0,0-.41,3.14,9.48,9.48,0,0,1,.24,2.75c-.12,1-.48,1.64-1.65,2.89-1.62,1.74-1.89,2.38-2,4.89a8.55,8.55,0,0,1-1,4.26,17,17,0,0,0-.68,1.59l-.11.33Z"/><path class="cls-1" d="M279.47,42.74c-3.41,0-5.26,0-5.8,0a1.05,1.05,0,0,0,.05-.19c0-.12.28-.66.53-1.18a9.49,9.49,0,0,0,1.16-4.62c.15-2.44.36-3,1.84-4.54A5.66,5.66,0,0,0,279,29.51a7.25,7.25,0,0,0,0-2.83,6.66,6.66,0,0,1,0-2.8,3.07,3.07,0,0,1,.74-1.21c.06-.05.09-.06.12-.06s.46.3.77.61a6.81,6.81,0,0,1,1.52,2.42,4.82,4.82,0,0,0,1.1,1.92,2.19,2.19,0,0,0,1.4.49c.86.12,1.49.52,3.21,2.05.53.48,1.28,1.13,1.64,1.42.66.54,2.52,1.9,2.93,2.14l.08.06c-.43.6-2.69,3.55-3.58,4.66l-1.44,1.74a23.62,23.62,0,0,0-1.49,1.93l-.47.69Z"/><path class="cls-1" d="M360.91,42.73l-6.17,0,.65-.42a31.18,31.18,0,0,0,5.54-4.3,33.81,33.81,0,0,0,3.88-4.79,22.74,22.74,0,0,1,2.47-3.09,4.6,4.6,0,0,1,1.62-1.18l.2-.07,0,.06a3.34,3.34,0,0,0,.16,2.67,8.47,8.47,0,0,0,1.69,2.23,11.7,11.7,0,0,1,2,2.52c1.36,2.17,2.2,2.92,5.6,5l1.86,1.16.37.24-6.2,0h-13.6Z"/><path class="cls-1" d="M381,42c-.62-.4-1.65-1.05-2.29-1.43a18.25,18.25,0,0,1-3.75-2.7A8.6,8.6,0,0,1,373.53,36a14,14,0,0,0-2.08-2.69,7.61,7.61,0,0,1-1.69-2.27,2.24,2.24,0,0,1-.14-1,1.64,1.64,0,0,1,.16-1c.13-.26.16-.26.22-.26a1.88,1.88,0,0,1,.45.12c1.13.39,2.48,1.56,4.8,4.19,2.09,2.36,2.54,2.69,3.72,2.76h.3a5.39,5.39,0,0,0,1.08-.13,8.28,8.28,0,0,1,1.46-.14,3.59,3.59,0,0,1,.95.1c1,.26,1.93.83,4.54,2.78,2.39,1.79,4.1,3,6.09,4.21l-5.36,0h-5.94Z"/><path class="cls-1" d="M219.88,42.74c-.43,0-1.23,0-1.63,0,.44-.6,1.66-2.13,2.11-2.69.82-1,2.38-3,3.46-4.49a34.09,34.09,0,0,1,3.59-4.42,5.52,5.52,0,0,1,1.87-1.28l.27-.08a2.19,2.19,0,0,0-.28.42,1.93,1.93,0,0,0-.19,1.11,5.65,5.65,0,0,0,.22,1.56,4.24,4.24,0,0,1,.16,2.12,2.78,2.78,0,0,1-1.25,1.25c-2,1.2-2.34,1.56-3.07,3a9.76,9.76,0,0,1-.59,1,11,11,0,0,1-2.07,2l-.68.51Z"/><path class="cls-1" d="M234.31,42.74c-5.38,0-9.81,0-11.24,0l.21-.17a11.18,11.18,0,0,0,1.83-1.8,10.76,10.76,0,0,0,.7-1.21A5.27,5.27,0,0,1,228.39,37c1.17-.71,1.61-1.19,1.81-2a4.48,4.48,0,0,0-.2-2.29c-.11-.52-.22-1.06-.25-1.23a1.48,1.48,0,0,1,.7-1.52.59.59,0,0,1,.29-.1,1,1,0,0,1,.52.24,7.4,7.4,0,0,1,1.73,2l1.12,1.69A7,7,0,0,0,236,35.9a5.54,5.54,0,0,0,1.62.71,15.85,15.85,0,0,1,1.66.66,24.65,24.65,0,0,1,5.6,4.61l.86.86Z"/></g></g></svg>