<svg xmlns="http://www.w3.org/2000/svg" viewBox="0 0 800 523.43"><defs><style>.cls-1,.cls-2,.cls-6{fill:#fff;}.cls-2{font-size:155.22px;font-family:Causten-SemiBold, Causten;font-weight:600;letter-spacing:-0.03em;}.cls-3{letter-spacing:0.01em;}.cls-4{letter-spacing:-0.01em;}.cls-5{letter-spacing:0.01em;}.cls-6{font-size:94.78px;font-family:Causten-Light, Causten;font-weight:300;letter-spacing:0.1em;}.cls-7{letter-spacing:0.05em;}.cls-8{letter-spacing:0.1em;}</style></defs><g id="Layer_2" data-name="Layer 2"><g id="Layer_1-2" data-name="Layer 1"><path class="cls-1" d="M260,149l31.05-13.52L326.25,103c7.76-11.71,25.69-34.21,36.47-43.25l32.43,31.06,20.27,4c10.05,13,45.71,40.62,54,56.77,0,4,27.05-32.43,27.05-32.43l18.91,16.2c8.47,11.29,25.41,34.69,41.87,40.54l12.16,32.43,11.66,6.16C621.47-55.1,208.22-79.69,216.24,192.78Z"/><polygon class="cls-1" points="401.37 205.54 389.28 219.63 408.87 225.08 469.99 225.08 369.16 175.34 401.37 205.54"/><polygon class="cls-1" points="405.4 172.29 485.94 212.57 430.58 126.7 408.28 106.23 389.71 109.96 368.34 88.59 368.34 130.4 399.36 148.15 405.4 172.29"/><polygon class="cls-1" points="552.36 212.57 542.28 184.37 522.16 170.28 500.03 138.07 479.9 164.24 553.1 225.08 564.45 225.08 552.36 212.57"/><text class="cls-2" transform="translate(0 384.1)">P<tspan class="cls-3" x="87.39" y="0">é da Ser</tspan><tspan class="cls-4" x="656.27" y="0">r</tspan><tspan class="cls-5" x="709.35" y="0">a</tspan></text><text class="cls-6" transform="translate(235.56 504.47)">H<tspan class="cls-7" x="68.52" y="0">O</tspan><tspan class="cls-8" x="144.44" y="0">TEL</tspan></text></g></g></svg>