<svg xmlns="http://www.w3.org/2000/svg" viewBox="0 0 652.24 422.41"><defs><style>.a{fill:#fff;}</style></defs><path class="a" d="M217.4,124.55l26-11.31,29.4-27.09c6.49-9.8,21.48-28.61,30.5-36.16l27.12,26,16.94,3.38c8.4,10.9,38.21,34,45.17,47.46,0,3.38,22.61-27.12,22.61-27.12l15.82,13.55c7.08,9.44,21.24,29,35,33.89l10.17,27.12,9.75,5.14c33.75-225.44-311.75-246-305-18.19Z" transform="translate(-6.23)"/><polygon class="a" points="329.34 171.85 319.24 183.62 335.62 188.18 386.71 188.18 302.41 146.59 329.34 171.85"/><polygon class="a" points="332.71 144.04 400.05 177.72 353.77 105.93 335.12 88.82 319.59 91.93 301.73 74.06 301.73 109.02 327.66 123.86 332.71 144.04"/><polygon class="a" points="455.58 177.72 447.16 154.15 430.33 142.37 411.83 115.44 395 137.32 456.2 188.18 465.69 188.18 455.58 177.72"/><path class="a" d="M70.21,263.9c0,17.26-12.46,27-25.18,27H20.63v30.24H6.23V236.77H45C57.75,236.77,70.21,246.51,70.21,263.9Zm-14.41,0a12.72,12.72,0,0,0-13-13.11H20.63v26.08H42.57C49.83,276.87,55.8,271.55,55.8,263.9Z" transform="translate(-6.23)"/><path class="a" d="M135.48,291.28v3.89H90.58c1.43,9.35,8,15.19,16.87,15.19,8.31,0,13.11-3.77,15.58-7.27l9.6,7c-5.19,7.52-14.28,12.2-25.18,12.2-18.17,0-30.36-13.24-30.36-31s11.68-30.89,29.71-30.89C124.32,260.39,135.48,273.5,135.48,291.28Zm-44.77-5.06h31.8c-1.56-8.44-6.88-14.8-15.71-14.8S92.27,277.26,90.71,286.22Zm28.94-47.5-7.14,14H100.83l6.62-14Z" transform="translate(-6.23)"/><path class="a" d="M236.58,236.77v84.36H222.69v-7.66c-4.15,5.32-10.51,8.7-18.81,8.7-16.62,0-28.69-13.11-28.69-30.89,0-18,12.07-30.76,28.69-30.76,8.3,0,14.66,3.25,18.81,8.7V236.77Zm-13.89,54.51c0-10.25-6.62-17.65-16.87-17.65s-17,7.4-17,17.65,6.75,17.78,17,17.78S222.69,301.53,222.69,291.28Z" transform="translate(-6.23)"/><path class="a" d="M312.37,261.43v59.7H298.48v-7.66c-4.15,5.32-10.51,8.7-18.82,8.7-16.61,0-28.68-13.11-28.68-30.89,0-18,12.07-30.76,28.68-30.76,8.31,0,14.67,3.25,18.82,8.7v-7.79Zm-13.89,29.85c0-10.25-6.62-17.65-16.87-17.65s-17,7.4-17,17.65,6.75,17.78,17,17.78S298.48,301.53,298.48,291.28Z" transform="translate(-6.23)"/><path class="a" d="M365.57,294.26c2.6,5.84,12.85,13.89,25.57,13.89,11.55,0,15.57-4.28,15.57-11,0-8.31-14.4-10.77-21.15-13-7.14-2.2-28.42-6.1-28.42-24.27,0-17.26,14.92-24.65,32.44-24.65,16,0,29.07,8.69,32.32,17.78l-11.56,7.26c-2.33-4.8-11.29-10.51-22.45-10.51-9.34,0-14.27,3.5-14.27,9.47,0,8,13.23,10.26,20.5,12.46,6.75,2.21,28.68,7.14,28.68,24.79,0,17.26-13,26.22-33.22,26.22-19.08,0-31.66-9.74-35.69-20.25Z" transform="translate(-6.23)"/><path class="a" d="M492.88,291.28v3.89H448c1.42,9.35,8,15.19,16.87,15.19,8.3,0,13.11-3.77,15.57-7.27l9.6,7c-5.19,7.52-14.27,12.2-25.17,12.2-18.17,0-30.37-13.24-30.37-31s11.68-30.89,29.72-30.89C481.72,260.39,492.88,273.5,492.88,291.28Zm-44.77-5.06H479.9c-1.55-8.44-6.88-14.8-15.7-14.8S449.66,277.26,448.11,286.22Z" transform="translate(-6.23)"/><path class="a" d="M542.19,260.52v13.11c-7,.13-21,2.34-21,18.56v28.94H507.28v-59.7h13.89V272.2C526.1,264,534.15,260.65,542.19,260.52Z" transform="translate(-6.23)"/><path class="a" d="M589.82,260.52v13.11c-7,.13-21,2.34-21,18.56v28.94H554.91v-59.7H568.8V272.2C573.73,264,581.77,260.65,589.82,260.52Z" transform="translate(-6.23)"/><path class="a" d="M658.47,261.43v59.7H644.59v-7.66c-4.16,5.32-10.52,8.7-18.82,8.7-16.61,0-28.68-13.11-28.68-30.89,0-18,12.07-30.76,28.68-30.76,8.3,0,14.66,3.25,18.82,8.7v-7.79Zm-13.88,29.85c0-10.25-6.62-17.65-16.87-17.65s-17,7.4-17,17.65,6.75,17.78,17,17.78S644.59,301.53,644.59,291.28Z" transform="translate(-6.23)"/><path class="a" d="M240.37,370.27v51.5h-4.6V398.32H205.9v23.45h-4.6v-51.5h4.6V393.8h29.87V370.27Z" transform="translate(-6.23)"/><path class="a" d="M257.8,396c0-15.29,10.46-26.39,25.75-26.39s25.68,11.1,25.68,26.39-10.38,26.39-25.68,26.39S257.8,411.31,257.8,396Zm46.83,0c0-12.6-8.32-21.79-21.08-21.79S262.4,383.42,262.4,396s8.47,21.79,21.15,21.79S304.63,408.62,304.63,396Z" transform="translate(-6.23)"/><path class="a" d="M359.54,374.55H342.35v47.22h-4.6V374.55H320.48v-4.28h39.06Z" transform="translate(-6.23)"/><path class="a" d="M380.78,374.55V394h26.63v4.28H380.78v19.25h28.29v4.28H376.19v-51.5h32.88v4.28Z" transform="translate(-6.23)"/><path class="a" d="M459.63,417.49v4.28H426.9v-51.5h4.6v47.22Z" transform="translate(-6.23)"/></svg>