<svg xmlns="http://www.w3.org/2000/svg" viewBox="0 0 446.61 47.31"><defs><style>.cls-1{fill:#293f00;fill-rule:evenodd;}</style></defs><g id="Layer_2" data-name="Layer 2"><g id="BACKGROUND"><path class="cls-1" d="M49.14,47.3c-5.3,0-8,0-9.32,0,.7-.17,1.57-.32,2.56-.46A35,35,0,0,0,46.8,46a16.61,16.61,0,0,1,5.47-.69,15.55,15.55,0,0,0,5-.59,11.27,11.27,0,0,0,3.23-1.13,15.58,15.58,0,0,1,3.42-1.27c3.12-.91,3.64-1.18,8.05-4.13a32.57,32.57,0,0,0,4.17-3.1,7.11,7.11,0,0,1,1.38-1,57.42,57.42,0,0,0,6.66-4.62c2-1.6,3.27-2.73,6.21-5.52a28.84,28.84,0,0,1,4.5-3.8,17.22,17.22,0,0,1,3-1.57,15.53,15.53,0,0,0,3.91-2.31c2.35-1.9,4.18-4.12,7.8-9.51,2.66-4,4.13-5.89,4.92-6.43l.14-.1.18.2a7.48,7.48,0,0,1,1.93,4.89,14.62,14.62,0,0,1-1.05,4.8,12,12,0,0,0-1,4.49c0,1.42.41,2.75,1.94,6.18s2,4.95,2,6.44a3,3,0,0,1-.19,1.33,8.15,8.15,0,0,1-1.34,2.26,15.73,15.73,0,0,0-1.66,2.72,9,9,0,0,0-.62,4.2,34.27,34.27,0,0,0,.51,3.39.39.39,0,0,0,.32.15.28.28,0,0,0,.21-.09c.13-.16.12-.37-.12-1.88a13.11,13.11,0,0,1-.09-4c.31-1.42.79-2.34,2.32-4.45a7.27,7.27,0,0,0,1.27-2.42,7.34,7.34,0,0,0,0-2.52,24.46,24.46,0,0,0-1.91-5.29l-.74-1.7a27.23,27.23,0,0,0,3.2,3c1.33,1.1,2.4,2,3.36,3l3.1,2.93c.09.08,2.23,2.11,2.39,2.2a.43.43,0,0,0,.25.09.3.3,0,0,0,.3-.34c0-.1,0-.19-2.05-2.12-1.1-1-2.43-2.3-3-2.81-1.12-1.09-2-1.83-3.87-3.44a18.78,18.78,0,0,1-3.79-3.75,5.42,5.42,0,0,1-1.08-3.19c0-1.12.1-1.61,1-4.37.29-.9.63-2,.72-2.5A8,8,0,0,0,115.7.35L115.44,0h.07A10.28,10.28,0,0,1,118,.41c.73.23,1,.42,3.55,3a61.71,61.71,0,0,1,6.31,7.08,89.86,89.86,0,0,0,7.07,8.05c2.35,2.35,6.53,6.06,11.46,10.18a23.75,23.75,0,0,1,3,2.75c.79.88,3.52,3.75,4.88,5.13a18.08,18.08,0,0,0,4,3.32c1,.58,5.31,2.72,6.9,3.41a18.62,18.62,0,0,0,9,2,39.58,39.58,0,0,1,5.51.46,50.4,50.4,0,0,0,7.52.54,30.44,30.44,0,0,1,8.44.95H61.72L64,46.42a71.43,71.43,0,0,0,9.87-4.69c2.56-1.36,2.67-1.52,2.67-1.72a.28.28,0,0,0-.29-.32,1.07,1.07,0,0,0-.55.23c-.94.56-5.23,2.83-7.06,3.72a52,52,0,0,1-5.06,2.16l-3,1.14-.94.37ZM94,24.85c-.06,0-.16,0-1.09,1a18.07,18.07,0,0,1-3.37,2.68A25.51,25.51,0,0,0,85.28,32c-1.72,1.65-2.24,2.13-3.38,3.14a26.45,26.45,0,0,0-2.63,2.4.35.35,0,0,0,0,.33.29.29,0,0,0,.27.15c.16,0,.35-.11.65-.38L82.05,36c.88-.79,2.3-2.11,3.17-2.93a26.77,26.77,0,0,1,4.68-3.87,22.27,22.27,0,0,0,3.39-2.66c.94-.93,1.14-1.21,1-1.45a.31.31,0,0,0-.28-.2Z"/><path class="cls-1" d="M174,44.61A17.1,17.1,0,0,1,166,42.86c-1.72-.73-6.35-3-7.39-3.61a23.25,23.25,0,0,1-5.2-4.59c-.65-.69-1.64-1.74-2.21-2.33l-.77-.79h.12a8.14,8.14,0,0,0,2.9-1c2.61-1.29,3.38-1.8,6.87-4.61,2.26-1.8,3.65-2.86,5.71-4.36,4.8-3.5,5.94-4.2,7.18-4.41h.07a2,2,0,0,1,.33-.05.76.76,0,0,1,0,.16c0,.88.31,1.59,1.41,3.23s1.49,2.47,1.49,3.36a3.51,3.51,0,0,1-1.22,2.48,11.8,11.8,0,0,1-2.75,1.91,11.49,11.49,0,0,0-3.05,2.2,11.29,11.29,0,0,0-1.93,2.44l-.07.11c-.64,1.06-.64,1.06-2.4,2.53l-.19.16c-.79.66-.9.81-.88,1a.36.36,0,0,0,.25.3h0a17.72,17.72,0,0,0,3.21-2.63c.13-.17.44-.64.68-1a11.42,11.42,0,0,1,2.57-3A13.85,13.85,0,0,1,173,28.79a10,10,0,0,0,3.35-2.59,3.91,3.91,0,0,0,.16-4.8c-.17-.3-.61-1-1-1.48s-.73-1.14-.85-1.39a3,3,0,0,1-.38-1.41l0-.07.35,0A14.82,14.82,0,0,1,180,18.66c1.39.7,3.28,1.83,7.24,4.33,1,.63,2.63,1.65,3.65,2.28s2,1.28,2.25,1.42c.43.32,2.76,2.29,3.3,2.79-.25.23-.95.78-2,1.55l-2,1.54a36.25,36.25,0,0,1-3.12,2.34,9.21,9.21,0,0,0-2.77,2.49A7,7,0,0,1,183.17,40a15.81,15.81,0,0,0-4,2.34c-.39.3-1.09.8-1.53,1.09s-1,.69-1.24.88l-.42.32Z"/><path class="cls-1" d="M18.69,47.3C8,47.29.28,47.27,0,47.25a1.2,1.2,0,0,1,0-.16c0-.51.14-.88,1.68-3.62,4.05-7.26,7.12-12,8.65-13.49.47-.45.56-.5,1.07-.5H12a1.61,1.61,0,0,0,.86-.2,6.57,6.57,0,0,0,2-1.8,10.21,10.21,0,0,1,2.47-2.22,9.91,9.91,0,0,1,2-1.12l0,0c-.69.82-.83,1.88-.52,3.92.32,2.2.18,2.64-1.35,4.35a8.14,8.14,0,0,0-2,3.44,12.14,12.14,0,0,1-2.76,4.52c-.46.56-.56.75-.51.93a.25.25,0,0,0,.19.19h0l.09,0c.21,0,.35-.17,1.16-1.19A11.44,11.44,0,0,0,16,36.22a7.52,7.52,0,0,1,2-3.37,15.08,15.08,0,0,0,1-1.2c.69-1,.79-1.92.44-4a5.65,5.65,0,0,1,0-2.31c.24-.74.89-1.34,1.27-1.34a3.48,3.48,0,0,1,1.79,1c.19.17.89.83,2,1.87a73.2,73.2,0,0,0,10.76,8.87c1.11.74,2.88,1.83,3.64,2.23a5.19,5.19,0,0,1,.79.53A17.59,17.59,0,0,0,44,41c.37.13,1.36.44,2.12.66a31.4,31.4,0,0,1,4.05,1.44c.79.32,2,.76,2.78,1s1.18.36,1.48.46c-.25,0-.6,0-1.08,0a37.71,37.71,0,0,0-4.63.24c-.39.07-1.4.3-2.24.51a32.26,32.26,0,0,1-4.49.85,18.38,18.38,0,0,0-3.81.85l-1,.31Zm-7.44-4.43c-.17,0-.37.16-.83.67-.65.71-.62.81-.59.89a.34.34,0,0,0,.28.21h0c.21,0,.37-.13.84-.65.6-.68.58-.79.56-.86A.27.27,0,0,0,11.25,42.87Z"/><path class="cls-1" d="M225.8,46.59c-.41-.32-1.29-1-2-1.43a26.18,26.18,0,0,1-6.7-5.92A30.18,30.18,0,0,0,212,34.3,25.28,25.28,0,0,1,207.5,30a7.89,7.89,0,0,1-1.24-2.48,3.41,3.41,0,0,1,.54-3c.12-.14.13-.14.18-.14l.21,0a8.26,8.26,0,0,1,4.18,2.14c1.57,1.28,2.84,2.57,7.54,7.68s6.09,6.57,8.62,9.1c1.76,1.75,2.46,2.51,2.53,2.63a1.15,1.15,0,0,1,0,.68.76.76,0,0,1-.2.17c-.14.08-.31.11-1.31.14-.63,0-1.41.07-1.7.1l-.43,0Z"/><path class="cls-1" d="M196.86,46.94c-2.84-1-4.53-1.21-10.07-1.33a50.15,50.15,0,0,1-8-.65l-1.67-.2h-.06l.79-.56c.38-.24,1.19-.82,1.85-1.31a15.51,15.51,0,0,1,3.59-2.12,8.21,8.21,0,0,0,4-3c.84-1.08,1.08-1.28,3.2-2.73.47-.32,1.25-.91,1.76-1.31.9-.74,2.07-1.66,4-3.18a5.4,5.4,0,0,1,1.38-.89,25.06,25.06,0,0,0,5-3.15,11.25,11.25,0,0,1,3.07-1.95l.27-.09-.12.22a4.86,4.86,0,0,0,.15,4.2c.75,1.6,2,3.06,4.65,5.2l.65.54,1.48,1.23A28.16,28.16,0,0,1,216,39l.07.08c.34.4.82,1,1.13,1.33a29.54,29.54,0,0,0,3.13,3.11c.67.54,1.43,1.09,3.24,2.35.6.41,1.33.94,1.63,1.18l.22.17c-.76,0-4.69.06-13.79.07l-13.68,0Z"/><path class="cls-1" d="M55.29,44.07c-.33-.14-1.13-.41-1.78-.61A32.23,32.23,0,0,1,50,42.21a27.85,27.85,0,0,0-3.74-1.3A19,19,0,0,1,43,39.76a18.46,18.46,0,0,1-1.67-.93c1.71-.33,11.69-1.76,14.4-2,1.34-.11,4.33-.26,13.31-.66a18.26,18.26,0,0,0,5.57-.78l.08,0-.65.51c-.41.3-1.6,1.12-2.66,1.82-4.16,2.76-4.67,3-7.78,3.93-.67.19-1.5.45-1.84.57A7.16,7.16,0,0,0,60.1,43a6.28,6.28,0,0,1-1.11.48c-.28.1-1.1.33-1.86.52l-1.29.31Z"/><path class="cls-1" d="M265.62,47.3c-5.3,0-8,0-9.31,0a23.78,23.78,0,0,1,2.56-.46,34.84,34.84,0,0,0,4.41-.85,16.63,16.63,0,0,1,5.48-.69,15.49,15.49,0,0,0,5-.59A11.79,11.79,0,0,0,277,43.56a15,15,0,0,1,3.41-1.27c3.12-.92,3.65-1.19,8.06-4.14a32.45,32.45,0,0,0,4.16-3.09,7.15,7.15,0,0,1,1.38-1,56.43,56.43,0,0,0,6.67-4.61c2-1.6,3.26-2.74,6.2-5.53a28.05,28.05,0,0,1,4.51-3.79,16.65,16.65,0,0,1,3-1.58,15.17,15.17,0,0,0,3.91-2.3c2.36-1.9,4.18-4.12,7.8-9.52,2.66-4,4.13-5.88,4.93-6.42l.13-.1.18.2a7.45,7.45,0,0,1,1.94,4.89,14.89,14.89,0,0,1-1,4.8,12.11,12.11,0,0,0-1,4.49c0,1.41.41,2.74,1.94,6.18s2,4.94,2,6.44a2.75,2.75,0,0,1-.19,1.33,8,8,0,0,1-1.34,2.26A15.72,15.72,0,0,0,332,33.52a9.13,9.13,0,0,0-.62,4.21c.06.6.41,3.21.51,3.39a.42.42,0,0,0,.32.14.26.26,0,0,0,.21-.09c.13-.15.12-.36-.11-1.87a12.8,12.8,0,0,1-.09-4c.3-1.43.78-2.34,2.32-4.45a7.57,7.57,0,0,0,1.27-2.42,7.6,7.6,0,0,0,0-2.52,25.65,25.65,0,0,0-1.91-5.3l-.75-1.69a27.61,27.61,0,0,0,3.21,3c1.33,1.11,2.39,2.05,3.36,2.95l3.1,2.93c.09.09,2.22,2.11,2.38,2.21a.43.43,0,0,0,.25.09.31.31,0,0,0,.3-.34c0-.1,0-.19-2.05-2.12-1.09-1-2.43-2.3-3-2.82-1.12-1.08-2-1.82-3.87-3.43a18.76,18.76,0,0,1-3.79-3.75,5.39,5.39,0,0,1-1.09-3.2c0-1.12.11-1.61,1-4.36.3-.9.63-2,.73-2.5a8.05,8.05,0,0,0-1.54-7.2L331.93,0H332a10.2,10.2,0,0,1,2.44.41c.73.23,1,.42,3.55,3a60.68,60.68,0,0,1,6.32,7.08,93.21,93.21,0,0,0,7.06,8.05c2.35,2.35,6.53,6.06,11.47,10.17a24,24,0,0,1,3,2.76c.79.87,3.53,3.75,4.88,5.13a17.74,17.74,0,0,0,4,3.31c1,.59,5.31,2.72,6.9,3.41a18.47,18.47,0,0,0,9,2,41,41,0,0,1,5.51.47,50.49,50.49,0,0,0,7.52.54,29.77,29.77,0,0,1,8.45.95H324.89c-24.75,0-42.57,0-46.68,0l2.28-.86a73.21,73.21,0,0,0,9.88-4.69C292.92,40.37,293,40.21,293,40a.29.29,0,0,0-.29-.32,1.24,1.24,0,0,0-.56.23c-.93.57-5.22,2.83-7.06,3.73a51.78,51.78,0,0,1-5.05,2.16l-3,1.13-.94.37Zm44.89-22.45c-.05,0-.16,0-1.09,1a18,18,0,0,1-3.36,2.68A24.68,24.68,0,0,0,301.77,32c-1.73,1.66-2.24,2.14-3.38,3.14a24.6,24.6,0,0,0-2.63,2.41.35.35,0,0,0,0,.33A.28.28,0,0,0,296,38c.16,0,.36-.11.65-.38L298.53,36c.89-.79,2.31-2.1,3.17-2.93a27.35,27.35,0,0,1,4.69-3.87,21.73,21.73,0,0,0,3.39-2.65c.93-.93,1.14-1.22,1-1.46a.3.3,0,0,0-.27-.2Z"/><path class="cls-1" d="M390.51,44.61a17.1,17.1,0,0,1-8.05-1.75c-1.73-.73-6.36-3-7.4-3.61a23.59,23.59,0,0,1-5.2-4.6c-.64-.69-1.64-1.74-2.21-2.32l-.77-.79H367a8,8,0,0,0,2.89-1.05c2.62-1.28,3.39-1.8,6.88-4.6,2.25-1.81,3.64-2.87,5.7-4.37,4.81-3.5,5.95-4.2,7.19-4.4h.06a2.11,2.11,0,0,1,.34-.05v.16c0,.87.32,1.59,1.41,3.23S393,22.91,393,23.8a3.5,3.5,0,0,1-1.21,2.47A11.57,11.57,0,0,1,389,28.19,11.73,11.73,0,0,0,386,30.38,11.11,11.11,0,0,0,384,32.83l-.06.1c-.65,1.06-.65,1.06-2.4,2.53l-.2.16c-.79.67-.9.82-.88,1a.39.39,0,0,0,.25.31h0A17.5,17.5,0,0,0,384,34.28c.13-.16.44-.64.68-1a11.37,11.37,0,0,1,2.56-3,16,16,0,0,1,2.24-1.43,10,10,0,0,0,3.36-2.58,3.91,3.91,0,0,0,.15-4.8c-.17-.3-.61-1-.94-1.48s-.74-1.14-.86-1.39a3,3,0,0,1-.37-1.42V17l.35,0a14.79,14.79,0,0,1,5.39,1.59c1.39.69,3.28,1.83,7.24,4.33l3.65,2.28c1.08.65,2,1.28,2.25,1.42.43.32,2.76,2.29,3.31,2.79-.26.22-1,.78-2,1.54-.38.29-1.26,1-1.95,1.55-1.41,1.13-2.14,1.68-3.13,2.34a9.46,9.46,0,0,0-2.77,2.49A7,7,0,0,1,399.65,40a16.55,16.55,0,0,0-4,2.34c-.4.3-1.1.8-1.53,1.1s-1,.69-1.25.88l-.42.32Z"/><path class="cls-1" d="M235.17,47.3c-10.73,0-18.4,0-18.66,0,0,0,0,0,0-.17,0-.5.14-.88,1.67-3.62,4.06-7.25,7.13-12,8.65-13.48.47-.45.56-.5,1.08-.5h.55a1.61,1.61,0,0,0,.87-.19,6.77,6.77,0,0,0,2-1.81,10.23,10.23,0,0,1,2.47-2.22,9,9,0,0,1,2-1.11l0,0c-.69.82-.83,1.88-.53,3.91.33,2.2.19,2.65-1.35,4.36a8.06,8.06,0,0,0-2,3.44,12.13,12.13,0,0,1-2.77,4.52c-.45.56-.56.75-.51.93a.32.32,0,0,0,.19.19h.12c.22,0,.36-.17,1.17-1.18a11.74,11.74,0,0,0,2.43-4.1,7.45,7.45,0,0,1,2-3.37,14.45,14.45,0,0,0,1-1.21c.69-1,.79-1.91.44-4a5.5,5.5,0,0,1,0-2.32c.23-.74.88-1.33,1.26-1.33a3.46,3.46,0,0,1,1.8,1c.19.17.88.83,2,1.87a73.24,73.24,0,0,0,10.77,8.87c1.1.74,2.87,1.82,3.64,2.22a6.21,6.21,0,0,1,.79.54A17.08,17.08,0,0,0,260.49,41c.36.14,1.36.45,2.11.67a29.93,29.93,0,0,1,4,1.44c.8.31,2.05.76,2.78,1s1.19.36,1.49.46l-1.09,0a39.3,39.3,0,0,0-4.62.25c-.4.07-1.41.29-2.25.51a35.5,35.5,0,0,1-4.49.85,19,19,0,0,0-3.8.84l-1,.31Zm-7.43-4.43c-.18,0-.37.16-.84.66-.65.72-.62.81-.59.89a.35.35,0,0,0,.29.22h0c.21,0,.37-.13.83-.65.61-.68.58-.8.57-.87A.28.28,0,0,0,227.74,42.87Z"/><path class="cls-1" d="M442.28,46.58c-.4-.31-1.29-.95-2-1.42a26.54,26.54,0,0,1-6.7-5.92,30.1,30.1,0,0,0-5.16-5A25,25,0,0,1,424,30a7.79,7.79,0,0,1-1.24-2.48,3.41,3.41,0,0,1,.53-3c.13-.15.13-.15.19-.15l.2,0a8.43,8.43,0,0,1,4.18,2.14c1.58,1.29,2.85,2.58,7.55,7.69s6.08,6.57,8.61,9.09c1.76,1.76,2.47,2.52,2.53,2.63a1.08,1.08,0,0,1,0,.68s-.1.11-.2.18-.3.1-1.31.14c-.63,0-1.41.07-1.7.09l-.43.05Z"/><path class="cls-1" d="M413.35,46.94c-2.84-1-4.53-1.21-10.07-1.33a51.35,51.35,0,0,1-8-.65c-.65-.08-1.4-.18-1.67-.2h-.06l.79-.55c.37-.25,1.19-.83,1.85-1.31a15.69,15.69,0,0,1,3.59-2.13,8.14,8.14,0,0,0,4-3c.84-1.07,1.08-1.27,3.19-2.72.47-.32,1.26-.91,1.76-1.31.91-.74,2.07-1.66,4-3.18a5.41,5.41,0,0,1,1.39-.89,26.38,26.38,0,0,0,5-3.15,11.39,11.39,0,0,1,3.08-1.95l.27-.09-.12.22a4.79,4.79,0,0,0,.15,4.2c.74,1.6,2,3.06,4.64,5.2l.66.54c.54.44,1.12.92,1.48,1.23A28.16,28.16,0,0,1,432.47,39l.07.08,1.12,1.33a30.59,30.59,0,0,0,3.14,3.11c.67.53,1.43,1.08,3.24,2.34.6.42,1.33,1,1.62,1.18l.22.18c-.75,0-4.69.05-13.78.07l-13.68,0Z"/><path class="cls-1" d="M271.78,44.07c-.34-.14-1.14-.41-1.78-.61a32.49,32.49,0,0,1-3.56-1.26,28.29,28.29,0,0,0-3.74-1.3,17.28,17.28,0,0,1-3.21-1.15,16.77,16.77,0,0,1-1.68-.92c1.72-.33,11.69-1.76,14.4-2,1.35-.11,4.33-.26,13.31-.66a18,18,0,0,0,5.58-.79l.08,0q-.27.22-.66.51c-.41.31-1.6,1.13-2.66,1.83-4.15,2.76-4.66,3-7.77,3.93-.67.19-1.5.45-1.85.57a7,7,0,0,0-1.66.79,6,6,0,0,1-1.1.48c-.28.1-1.1.33-1.87.51l-1.29.32Z"/></g></g></svg>