<svg xmlns="http://www.w3.org/2000/svg" viewBox="0 0 437.53 36.57"><defs><style>.cls-1{fill:#293f00;fill-rule:evenodd;}</style></defs><g id="Layer_2" data-name="Layer 2"><g id="BACKGROUND"><path class="cls-1" d="M127.84,36.57l-.48-.43c-.3-.28-1.31-1.26-2.12-2.06-1.38-1.38-1.64-1.6-1.85-1.6s-.25,0-.25.32a45.09,45.09,0,0,0,3.56,3.7l.08.07H91.06l-2.51-1.28a54.23,54.23,0,0,1-5-2.73c-1.72-1.08-2-1.19-3.19-1.35s-1.66-.39-2.83-1.91c-.31-.39-.72-.89-.85-1a2.15,2.15,0,0,0-1.38-.57,3.37,3.37,0,0,0-2.23,1.22c-.26.27-1,1.07-1.61,1.8a34.29,34.29,0,0,1-3.41,3.51c-.29.24-1.06.86-1.77,1.41l-1.17.91h-9c.61-.74,1.8-2.07,2.3-2.55A4.33,4.33,0,0,1,60,32.91a11.6,11.6,0,0,0,4-3c.87-1,2.74-3.13,3.46-4s1.08-1.09,1.27-1.14a2.13,2.13,0,0,1,.4,0h.28l.33,0a1.72,1.72,0,0,0,.73-.16,10.23,10.23,0,0,0,2.24-1.42,17.66,17.66,0,0,0,3.26-3,4.76,4.76,0,0,1,.61-.7,34.88,34.88,0,0,0,3.55-4.19,9,9,0,0,1,2.53-2.6,1.12,1.12,0,0,1,.48-.13,2.31,2.31,0,0,1,1.21.56c.43.29.65.42.87.42a.89.89,0,0,0,.53-.24,27.36,27.36,0,0,0,3.1-4c1.29-1.87,1.58-2.14,2-2.14a.64.64,0,0,1,.36.11l.18.13.26.19a1,1,0,0,0,.59.21,1.51,1.51,0,0,0,.7-.21c.88-.44,2.21-1.62,4.9-4.32C99.21,2,100.11,1.09,100.58.69a3.23,3.23,0,0,0-.07,1.21,9,9,0,0,0,.31,2.22,20,20,0,0,1,.48,3.65,6.93,6.93,0,0,0,.67,2.74c.16.34.26.57.27.61h0a2.33,2.33,0,0,0-.14.3A7.84,7.84,0,0,1,101,12.69a15,15,0,0,0-1.27,1.39A10.06,10.06,0,0,0,98.5,17a11.1,11.1,0,0,1-1.45,3.58,6.24,6.24,0,0,1-1.79,1.54,18.33,18.33,0,0,0-3.11,2.56c-.73.71-1.59,1.5-2,1.8-1,.88-2.79,2.41-2.65,2.79a.27.27,0,0,0,.27.21c.19,0,.42-.17,1.15-.89.47-.47,1.21-1.15,1.62-1.48s1.36-1.23,2-1.85a17.44,17.44,0,0,1,3.08-2.53c2.06-1.4,2.55-2.14,3.46-5.32.69-2.38.9-2.77,2.29-4.13a11.86,11.86,0,0,0,1.2-1.32l.09-.15.06.09c.13.18.48.65.79,1.05s.85,1.12,1.24,1.68a17.1,17.1,0,0,0,1.86,2.16c.64.68,1.49,1.61,1.88,2.09s1.07,1.27,1.46,1.7.9,1,1.16,1.36c.85,1.05,1.06,1.23,1.26,1.23s.24,0,.28-.3a20.13,20.13,0,0,0-2.27-2.91c-.28-.3-.85-1-1.25-1.46s-1.33-1.5-2-2.14a16,16,0,0,1-1.8-2.1c-.34-.49-.92-1.26-1.28-1.72-1.73-2.22-2.08-3.1-2.2-5.58a18.12,18.12,0,0,0-.48-3.21c-.4-1.76-.4-2.55,0-3.39.1-.19.13-.19.15-.19a1.91,1.91,0,0,1,.57.25,12.91,12.91,0,0,0,2.67,1.24,11.39,11.39,0,0,1,5.18,3.22,30.29,30.29,0,0,1,3.84,5.09,27.82,27.82,0,0,0,2.1,2.95,1.28,1.28,0,0,0,1.16.51h.51l.47,0a2,2,0,0,1,1.37.47c.5.32,1.17,1,4.45,4.36,1,1,2.2,2.21,2.42,2.38a1.41,1.41,0,0,0,.9.33,3.75,3.75,0,0,0,1.74-.64,2.34,2.34,0,0,1,.93-.4.78.78,0,0,1,.26.06,6.65,6.65,0,0,1,1.73,1.31,30,30,0,0,1,3.59,4c1.68,2.07,2.4,2.93,4.65,5.46,2.56,2.87,3.83,4.26,4.88,5.33l.51.52ZM111,18.23a.37.37,0,0,0-.26.15c-.19.2-.19.2.58,1.2l.08.1,1.89,2.5c2,2.66,2.4,3.05,4.64,4.18a14.82,14.82,0,0,1,1.52.86,11.56,11.56,0,0,1,1.16,1.17,40.09,40.09,0,0,0,3.18,3.36c1.42,1.36,1.52,1.36,1.61,1.36s.25-.09.28-.19-.11-.45-1.62-1.93c-.88-.87-2.08-2.11-2.66-2.78a14.58,14.58,0,0,0-1.53-1.57,17.28,17.28,0,0,0-1.81-1,7.64,7.64,0,0,1-2.71-1.93c-.24-.27-1.14-1.44-2-2.54s-1.68-2.23-1.87-2.46C111.16,18.23,111.1,18.23,111,18.23Z"/><path class="cls-1" d="M146.56,36.57l-1.06-1.12c-1.57-1.63-1.92-2-3.67-4l-2.31-2.59c-1-1.1-1.84-2.12-3.28-3.89-.63-.79-1.41-1.74-1.73-2.12l-.41-.48.15-.06c1-.32,1.88-.92,4.06-2.67A9.21,9.21,0,0,1,140,18.49a1.52,1.52,0,0,1,.62-.12,4.58,4.58,0,0,1,1.12.19,5,5,0,0,0,1.29.26,1.9,1.9,0,0,0,.63-.11c.87-.27,1.66-.88,3.38-2.63a86.34,86.34,0,0,0,7-8.15c2.84-3.6,4-4.87,5.09-5.44h0a7.86,7.86,0,0,0-1,4.73,17.13,17.13,0,0,0,.37,2.44,9.78,9.78,0,0,1,.22,2.34c0,.24-.11.84-.2,1.33a9.56,9.56,0,0,0-.08,3,8.74,8.74,0,0,0,1.4,3.22c1,1.48,4.73,6.23,5.25,6.23a.28.28,0,0,0,.29-.15c.09-.2-.06-.43-.89-1.37s-2.56-3-3.27-4a10.92,10.92,0,0,1-2-3.6,7.87,7.87,0,0,1,0-3.4,9.58,9.58,0,0,0-.12-4,12.86,12.86,0,0,1-.34-2.77,6.78,6.78,0,0,1,1.09-3.83c.15-.19.19-.22.21-.22s.34.27.48.42a24.62,24.62,0,0,1,2.55,3.78c1.35,2.17,2.95,4.56,3.36,5a4.92,4.92,0,0,0,1.26.93A17.3,17.3,0,0,1,171.88,16a22.35,22.35,0,0,0,2.31,2.26c.49.39,2.2,1.55,3.26,2.22A41.27,41.27,0,0,1,181,23.31c1,.89,1.54,1.19,2.18,1.19h.23c.56-.06.89-.09,1.12-.09a1.85,1.85,0,0,1,.51.07,7,7,0,0,1,2.6,1.72A27.26,27.26,0,0,0,191.2,29a7.09,7.09,0,0,0,4,1.47,8,8,0,0,1,2.26.61c1.64.69,2.7,1.39,5.67,3.76.67.54,1.53,1.21,1.92,1.5l.27.2-15.54,0h-16l-1.06-1.11c-.62-.65-1.45-1.5-1.84-1.89C168,30.76,166.12,29,165.09,28a17,17,0,0,1-3.38-3.77c-.66-.93-.79-1-.91-1h-.07a.26.26,0,0,0-.23.12c-.1.18,0,.41.65,1.34a17.13,17.13,0,0,0,3.42,3.82c.7.63,1.82,1.7,2.49,2.37l2.59,2.57c.78.76,1.85,1.84,2.39,2.41l.67.71Zm45.88-4.93c-.66,0-.74.09-.79.2a.3.3,0,0,0,0,.28c.1.15.33.18.91.21a4.6,4.6,0,0,1,2,.48,10.58,10.58,0,0,1,2.35,1.47c.57.46.81.61,1,.61s.26,0,.26-.32-1.86-1.65-2.35-1.93a8.71,8.71,0,0,0-2.2-.9A6,6,0,0,0,192.44,31.64Zm-4-2.3a.3.3,0,0,0-.28.21c-.09.25.16.5,1.22,1.2.54.37.79.5,1,.5a.28.28,0,0,0,.27-.3c0-.19-.16-.33-.62-.63-.29-.19-.71-.48-.92-.64S188.56,29.34,188.41,29.34Zm-13.28-8.68a.33.33,0,0,0-.32.37c0,.37,3.63,3.74,3.88,3.93a7.67,7.67,0,0,0,1.9,1.1,4.06,4.06,0,0,0,1.49.14c1,0,1.06,0,1.35.14a15,15,0,0,1,2.5,1.56c.67.5.92.64,1.11.64a.27.27,0,0,0,.28-.25c.08-.41-2.56-2.05-2.58-2.06a3.49,3.49,0,0,0-2.14-.75l-.44,0h-.4a3.22,3.22,0,0,1-2.16-.78,21.29,21.29,0,0,1-3.44-3.13C175.26,20.66,175.21,20.66,175.13,20.66Z"/><path class="cls-1" d="M25.63,36.57l-.3-.47c-.49-.75-2.1-3.07-3.26-4.7-2.33-3.24-3-3.76-4.82-3.93a5.46,5.46,0,0,1-1-.16c-.41-.14-.82-.57-1.35-1.42-.28-.44-.77-1.21-1.1-1.71l-.48-.74c.61-.05,1.44-.73,4.14-3.37,2.14-2.09,4.2-4,4.8-4.46a4.41,4.41,0,0,1,.78-.46c0,.06,0,.14,0,.23-.25,1.17.1,2.14,1.51,4.16.31.46.73,1.1.88,1.39a3.21,3.21,0,0,1,.44,2c-.05,2.27,0,2.64.47,3.61A10.28,10.28,0,0,0,28.06,29c.4.46,1.06,1.23,1.45,1.7,1,1.27,1.11,1.34,1.3,1.34h0l.08,0a.33.33,0,0,0,.22-.3,11.39,11.39,0,0,0-1.82-2.36,29.88,29.88,0,0,1-2-2.4,5.1,5.1,0,0,1-.72-1.59,5.39,5.39,0,0,1-.06-1.7c.07-2.06,0-2.4-1.46-4.5a9.06,9.06,0,0,1-1.37-2.5,3,3,0,0,1,0-1.37l.06-.22.11,0c.88.12,2.42,1.09,4.86,3.05a12.14,12.14,0,0,0,1.41,1.08c.15.15,3.13,3.86,4.43,5.57.09.12.85,1.13,1,1.23a.45.45,0,0,0,.28.11.26.26,0,0,0,.23-.1.29.29,0,0,0,.07-.26c0-.28-2.54-3.4-3.3-4.35s-1.23-1.53-1.45-1.81h0c.75-.24,2-1.24,5.54-4.46s4.16-3.72,4.77-3.9a.54.54,0,0,1,.18,0,.88.88,0,0,1,.24.05,1.36,1.36,0,0,1,.43.26,1.36,1.36,0,0,0,1,.49,3.1,3.1,0,0,0,.75-.13,4.47,4.47,0,0,1,1.1-.22l.22,0c.44.13,1,.65,3.22,3.31,1.66,1.95,1.87,1.95,2,1.95.31,0,1.42-1.31,2.06-2.09.46-.57,1-1.15,1.12-1.31a2.83,2.83,0,0,1,.75-.52,3.73,3.73,0,0,0-.25,2.07c.1,1.84,0,2-.41,2.42a5.1,5.1,0,0,1-1.4.85,12.47,12.47,0,0,0-1.43.8,4.55,4.55,0,0,0-1.5,2.33,9.73,9.73,0,0,0-.16,1.3c-.09,1.41-.22,1.58-1.92,2.71a13.11,13.11,0,0,0-3,2.53,26.52,26.52,0,0,1-3.4,3.24l-1.25.88L38.84,33A18.2,18.2,0,0,0,36,35.55l-1,1Z"/><path class="cls-1" d="M45.46,36.57c-6.18,0-8.65,0-9.38,0,.51-.55,2-2,2.46-2.38.28-.23.85-.65,1.24-.92.68-.48,1.16-.81,2.3-1.64A19,19,0,0,0,44.83,29a14.35,14.35,0,0,1,3.27-2.88A5.2,5.2,0,0,0,50,24.37a4,4,0,0,0,.33-1.71,3.74,3.74,0,0,1,1.12-2.72A4.53,4.53,0,0,1,53,19c1.33-.68,1.81-1,2.08-1.62a3.83,3.83,0,0,0,.14-2c-.1-1.3,0-2,.4-2.39a.21.21,0,0,1,.19-.08,3,3,0,0,1,.71.16c1.4.4,2.86,1.41,6.23,4.31a11.68,11.68,0,0,0,2.4,1.86.58.58,0,0,0,.19,0c.35,0,.79-.28,1.8-1.18a6.76,6.76,0,0,1,2-1.45,1.1,1.1,0,0,1,.26,0,2.08,2.08,0,0,1,.86.19A28.08,28.08,0,0,1,74,19.53a3.67,3.67,0,0,0,1,.76,32.4,32.4,0,0,1-3.76,3.11,2.48,2.48,0,0,1-1.71.64h-.33c-1,0-1.25.24-2.29,1.46-1.3,1.51-3.13,3.6-3.59,4.11a10.09,10.09,0,0,1-3.56,2.6c-1.35.6-1.89,1.08-4.06,3.66l-.59.7Zm-6-1.47a1.47,1.47,0,0,0-.79.42.37.37,0,0,0-.11.4.31.31,0,0,0,.3.2,1.68,1.68,0,0,0,.84-.53.29.29,0,0,0-.24-.49Zm8-6.74a1.59,1.59,0,0,0-.72.32,9.12,9.12,0,0,0-2,1.88,12.54,12.54,0,0,1-1,1c-.14.13-.84.62-1.75,1.24-1.48,1-1.56,1.12-1.57,1.27a.27.27,0,0,0,.05.24l0,.06.14,0c.18,0,.46-.14,1.63-.93a10.46,10.46,0,0,0,2.89-2.39,9.17,9.17,0,0,1,2-1.91c.38-.23.52-.36.52-.53A.28.28,0,0,0,47.41,28.36Z"/><path class="cls-1" d="M205.62,35.88c-.54-.41-1.53-1.18-2.22-1.73a26.25,26.25,0,0,0-4.74-3.29,9.53,9.53,0,0,0-3.46-1.12,6.6,6.6,0,0,1-3.73-1.44,22.07,22.07,0,0,1-3.07-2.38,10.75,10.75,0,0,0-2.5-1.87,3.13,3.13,0,0,0-1.44-.36,3.4,3.4,0,0,0-.45,0,5.6,5.6,0,0,1-.75.06,1.57,1.57,0,0,1-.61-.1,7.74,7.74,0,0,1-1.49-1.17l-1.15-1-.3-.24a3.8,3.8,0,0,0,1.67-1c3-2.55,3.79-3.11,4.64-3.15h.18a2.07,2.07,0,0,1,1.36.58,3.23,3.23,0,0,0,.84.5h.16c.53,0,1.24-.45,3.3-2.08a11,11,0,0,1,3.07-2,2.45,2.45,0,0,1,.82-.1h.4v.46a4,4,0,0,0,.46,2c.53,1.11,1.14,1.78,3.85,4.21l2.08,1.9c2.13,2,2.3,2.11,2.47,2.11s.25-.08.28-.16,0-.4-1.5-1.76c-.81-.76-2.15-2-2.94-2.68-2.93-2.64-3.59-3.45-3.93-4.8a4.37,4.37,0,0,1-.09-1.14,5.67,5.67,0,0,1,1.22.51,74,74,0,0,1,7.4,5.24c.76.58.94.68,1.08.68h.05l.06,0a.37.37,0,0,1,.17.06,1.55,1.55,0,0,0,.75.19,5.65,5.65,0,0,0,1.59-.35,3.73,3.73,0,0,1,1.16-.23,1.87,1.87,0,0,1,.8.18A8.73,8.73,0,0,1,213,21.91c2.76,2.53,9.57,9.25,9.86,9.69a20.37,20.37,0,0,1,1.33,4.7c0,.1,0,.1-.18.17s-1.23.1-8.89.1h-8.61Z"/><path class="cls-1" d="M12.59,36.57c-9.82,0-12.33,0-12.55-.08a.13.13,0,0,1,0-.09,61.2,61.2,0,0,1,3.33-6.11A48,48,0,0,1,9,22.6a3.88,3.88,0,0,1,1.24-1,.61.61,0,0,1,.24,0,1.69,1.69,0,0,1,1,.41c.17.16,1.47,2.07,2.68,4s1.54,2.11,2.94,2.22c1.72.15,2.19.54,4.52,3.8.85,1.18,2.59,3.71,3.13,4.53l.05.08Z"/><path class="cls-1" d="M69.5,36.56l-3.19,0L67,36a27.47,27.47,0,0,0,5-4.8,19,19,0,0,1,2.34-2.42,4,4,0,0,1,.46-.24l.07,0a2.18,2.18,0,0,0-.3,1.64c.14.57.54,1.1,1.71,2.25.59.58,1.45,1.47,1.92,2l1.53,1.68.42.45-3.27,0H69.5Z"/><path class="cls-1" d="M81.12,36.56l-.68-.76c-1.52-1.7-2.55-2.8-3.67-3.92-1.35-1.34-1.53-1.65-1.53-2.18a1.53,1.53,0,0,1,.41-1l.14-.15a4.61,4.61,0,0,1,.7.6l.72.91a3.72,3.72,0,0,0,2.62,1.8l1,.16a7.48,7.48,0,0,1,2.42,1.21A50.37,50.37,0,0,0,88,35.83l1.42.71c-1,0-3,0-3.8,0H81.12Z"/><path class="cls-1" d="M341.14,36.45l-.47-.43c-.3-.28-1.31-1.27-2.12-2.06-1.39-1.38-1.65-1.6-1.86-1.6-.05,0-.24,0-.24.32A43.32,43.32,0,0,0,340,36.37l.08.08H304.37l-2.52-1.28a55.1,55.1,0,0,1-5-2.73c-1.72-1.09-2-1.19-3.19-1.35s-1.66-.39-2.83-1.91a12.46,12.46,0,0,0-.86-1,2.08,2.08,0,0,0-1.37-.57,3.35,3.35,0,0,0-2.23,1.22c-.26.26-1,1.07-1.61,1.8a34.29,34.29,0,0,1-3.41,3.51l-1.77,1.41-1.17.91h-9c.6-.75,1.79-2.07,2.29-2.55a4.26,4.26,0,0,1,1.66-1.11,11.59,11.59,0,0,0,4-3c.86-1,2.74-3.12,3.45-4s1.09-1.09,1.28-1.14a2.13,2.13,0,0,1,.4,0h.61a1.82,1.82,0,0,0,.72-.15,9.76,9.76,0,0,0,2.24-1.43,17,17,0,0,0,3.26-3,4.63,4.63,0,0,1,.62-.7,34.74,34.74,0,0,0,3.54-4.2A9.37,9.37,0,0,1,296,12.54a1.19,1.19,0,0,1,.49-.13,2.38,2.38,0,0,1,1.21.56c.43.29.64.41.86.41a.85.85,0,0,0,.53-.23,26.51,26.51,0,0,0,3.1-4c1.29-1.87,1.58-2.14,2-2.14a.66.66,0,0,1,.36.11l.18.13.26.19a.92.92,0,0,0,.58.21,1.54,1.54,0,0,0,.71-.21c.87-.45,2.2-1.62,4.9-4.32,1.32-1.33,2.22-2.18,2.68-2.58a3.74,3.74,0,0,0-.07,1.21A9.59,9.59,0,0,0,314.13,4a19.21,19.21,0,0,1,.47,3.65,7.11,7.11,0,0,0,.67,2.74,5.1,5.1,0,0,1,.27.61h0a2.33,2.33,0,0,0-.14.3,9,9,0,0,1-1.14,1.27A12.7,12.7,0,0,0,313,14a10.33,10.33,0,0,0-1.19,2.87,11.15,11.15,0,0,1-1.44,3.58A6.39,6.39,0,0,1,308.57,22a18,18,0,0,0-3.12,2.56c-.73.71-1.59,1.5-1.95,1.8-1.05.88-2.79,2.41-2.66,2.79a.28.28,0,0,0,.27.21c.2,0,.42-.18,1.16-.9.47-.47,1.21-1.14,1.61-1.48s1.37-1.22,2-1.84A17.09,17.09,0,0,1,309,22.56c2.06-1.4,2.54-2.14,3.46-5.32.68-2.38.9-2.77,2.29-4.13a12.43,12.43,0,0,0,1.19-1.32l.1-.15.06.09c.12.17.48.64.79,1s.85,1.12,1.24,1.67A16.29,16.29,0,0,0,320,16.62c.65.68,1.5,1.61,1.89,2.09l1.45,1.7c.37.42.9,1,1.16,1.36.86,1.05,1.07,1.23,1.27,1.23s.23,0,.27-.3a20.1,20.1,0,0,0-2.26-2.91c-.28-.3-.85-1-1.26-1.46s-1.32-1.5-1.94-2.14a16.7,16.7,0,0,1-1.8-2.1c-.35-.49-.92-1.26-1.28-1.72-1.73-2.22-2.08-3.1-2.21-5.58a17.12,17.12,0,0,0-.48-3.21c-.4-1.76-.39-2.55,0-3.39.1-.19.13-.19.16-.19a1.91,1.91,0,0,1,.57.25,12.91,12.91,0,0,0,2.67,1.24,11.35,11.35,0,0,1,5.18,3.22,30.87,30.87,0,0,1,3.84,5.09,27.41,27.41,0,0,0,2.1,2.95,1.28,1.28,0,0,0,1.16.51H331l.47,0a2.06,2.06,0,0,1,1.37.47c.5.32,1.16,1,4.45,4.36,1,1,2.2,2.21,2.42,2.38a1.45,1.45,0,0,0,.9.33,3.68,3.68,0,0,0,1.74-.65,2.36,2.36,0,0,1,.93-.39.53.53,0,0,1,.25.06,6.32,6.32,0,0,1,1.73,1.31,29.18,29.18,0,0,1,3.6,4c1.67,2.06,2.39,2.92,4.65,5.46,2.55,2.86,3.83,4.26,4.87,5.33l.51.52ZM324.34,18.1a.4.4,0,0,0-.27.16c-.19.2-.19.2.59,1.2l.07.09c.32.41,1.17,1.54,1.9,2.51,2,2.65,2.4,3,4.64,4.18a13.41,13.41,0,0,1,1.51.86,11.56,11.56,0,0,1,1.16,1.17,41.84,41.84,0,0,0,3.19,3.36c1.41,1.36,1.51,1.36,1.6,1.36s.26-.09.29-.2-.11-.45-1.62-1.92c-.89-.87-2.08-2.11-2.66-2.78a16.83,16.83,0,0,0-1.53-1.57,16,16,0,0,0-1.82-1,7.74,7.74,0,0,1-2.71-1.93c-.23-.27-1.13-1.44-2-2.55s-1.68-2.22-1.86-2.45C324.47,18.1,324.4,18.1,324.34,18.1Z"/><path class="cls-1" d="M359.87,36.45l-1.07-1.12c-1.56-1.63-1.92-2-3.66-4l-2.31-2.59c-1-1.1-1.85-2.12-3.28-3.89l-1.74-2.13-.41-.48.15-.05c1-.33,1.89-.93,4.07-2.67a8.19,8.19,0,0,1,1.66-1.18,1.49,1.49,0,0,1,.62-.12,4.2,4.2,0,0,1,1.12.19,4.88,4.88,0,0,0,1.28.26,2.21,2.21,0,0,0,.64-.11c.87-.27,1.66-.88,3.38-2.63a89.73,89.73,0,0,0,7-8.16c2.83-3.59,4-4.86,5.09-5.43h0a8,8,0,0,0-1,4.72,18.79,18.79,0,0,0,.38,2.45,9.74,9.74,0,0,1,.22,2.34c0,.23-.11.84-.2,1.33a9.58,9.58,0,0,0-.09,3,8.68,8.68,0,0,0,1.41,3.22c1,1.48,4.73,6.23,5.25,6.23a.27.27,0,0,0,.28-.15c.09-.2-.05-.44-.89-1.37-1-1.1-2.56-3-3.27-4a11,11,0,0,1-2-3.6,8.08,8.08,0,0,1,0-3.41,9.36,9.36,0,0,0-.11-4,12.41,12.41,0,0,1-.35-2.77,6.77,6.77,0,0,1,1.1-3.84c.14-.18.19-.21.2-.21s.34.27.49.42a25,25,0,0,1,2.54,3.78c1.35,2.17,2.95,4.56,3.36,5a5.5,5.5,0,0,0,1.27.93,17.08,17.08,0,0,1,4.1,3.43,22.1,22.1,0,0,0,2.32,2.26c.49.39,2.2,1.55,3.26,2.22a42.44,42.44,0,0,1,3.53,2.83c1,.9,1.54,1.2,2.17,1.2l.24,0c.55-.05.88-.08,1.12-.08a1.72,1.72,0,0,1,.5.07,6.71,6.71,0,0,1,2.61,1.72,27.26,27.26,0,0,0,3.58,2.81,7.09,7.09,0,0,0,3.95,1.47,7.94,7.94,0,0,1,2.27.61c1.63.69,2.69,1.39,5.67,3.76l1.92,1.5.27.2-15.55,0H387L386,35.34c-.62-.65-1.45-1.5-1.85-1.89-2.83-2.81-4.7-4.62-5.72-5.54A16.81,16.81,0,0,1,375,24.14c-.65-.93-.78-1-.9-1H374a.26.26,0,0,0-.24.13c-.09.18,0,.41.66,1.34a17.13,17.13,0,0,0,3.42,3.82c.7.63,1.81,1.7,2.49,2.37s1.8,1.79,2.59,2.57,1.85,1.84,2.39,2.41l.67.71Zm45.88-4.93c-.66,0-.75.09-.79.2a.3.3,0,0,0,0,.28c.1.15.33.18.9.21a4.57,4.57,0,0,1,2,.48,10,10,0,0,1,2.35,1.47c.57.46.81.6,1,.6s.27,0,.27-.31-1.86-1.66-2.35-1.93a8.71,8.71,0,0,0-2.2-.9A6.11,6.11,0,0,0,405.75,31.52Zm-4-2.3a.3.3,0,0,0-.28.21c-.1.25.15.5,1.21,1.2.55.37.8.49,1,.49a.27.27,0,0,0,.28-.29c0-.19-.16-.33-.62-.63-.29-.19-.71-.48-.92-.64S401.86,29.22,401.72,29.22Zm-13.29-8.68c-.15,0-.31.11-.31.37s3.63,3.74,3.88,3.93a7.67,7.67,0,0,0,1.9,1.1,4.26,4.26,0,0,0,1.49.14c1,0,1.05,0,1.35.14a14.38,14.38,0,0,1,2.49,1.56c.68.5.93.64,1.11.64a.29.29,0,0,0,.29-.26c.07-.4-2.56-2-2.59-2.05a3.47,3.47,0,0,0-2.13-.75h-.84a3.21,3.21,0,0,1-2.16-.77,21.29,21.29,0,0,1-3.44-3.13C388.56,20.54,388.52,20.54,388.43,20.54Z"/><path class="cls-1" d="M238.93,36.45l-.3-.47c-.48-.75-2.09-3.08-3.25-4.7-2.34-3.25-3-3.76-4.83-3.93a5.32,5.32,0,0,1-1-.16c-.41-.14-.82-.57-1.36-1.43-.27-.43-.76-1.2-1.1-1.7l-.47-.74c.6-.05,1.43-.74,4.13-3.37,2.14-2.09,4.21-4,4.81-4.46a4.55,4.55,0,0,1,.77-.47c0,.07,0,.15,0,.24-.25,1.17.1,2.14,1.5,4.16.32.46.73,1.1.88,1.39a3.13,3.13,0,0,1,.44,2c0,2.28,0,2.65.47,3.62a10.59,10.59,0,0,0,1.75,2.37c.41.46,1.07,1.24,1.46,1.71,1,1.26,1.11,1.34,1.3,1.34h0l.07,0a.33.33,0,0,0,.23-.3,11.69,11.69,0,0,0-1.83-2.36,26.84,26.84,0,0,1-2-2.41,5.14,5.14,0,0,1-.71-1.58,5.24,5.24,0,0,1-.07-1.7c.07-2.06,0-2.4-1.46-4.51A9.51,9.51,0,0,1,237,16.5a3.17,3.17,0,0,1,0-1.37l.06-.22.11,0c.87.12,2.42,1.09,4.86,3a16.88,16.88,0,0,0,1.4,1.09c.16.15,3.13,3.86,4.43,5.57.09.12.86,1.13,1,1.23a.43.43,0,0,0,.28.11.29.29,0,0,0,.23-.1.33.33,0,0,0,.07-.26c-.05-.28-2.54-3.4-3.31-4.35l-1.44-1.81h0c.75-.23,2-1.24,5.54-4.46s4.17-3.71,4.77-3.9l.18,0a.87.87,0,0,1,.25,0,1.45,1.45,0,0,1,.42.26,1.4,1.4,0,0,0,1,.49,3,3,0,0,0,.74-.13,4.56,4.56,0,0,1,1.1-.22.9.9,0,0,1,.23,0c.44.13.95.65,3.21,3.3,1.66,2,1.87,2,2,2,.31,0,1.42-1.31,2.06-2.1.45-.56.95-1.14,1.11-1.3a3,3,0,0,1,.76-.52,3.71,3.71,0,0,0-.25,2.06c.1,1.85,0,2-.41,2.42a5.21,5.21,0,0,1-1.4.86,13.48,13.48,0,0,0-1.43.79,4.7,4.7,0,0,0-1.51,2.34c0,.23-.12.84-.16,1.3-.09,1.41-.21,1.58-1.91,2.71a13,13,0,0,0-3,2.53,27.31,27.31,0,0,1-3.39,3.24c-.33.22-.89.62-1.25.88l-1.25.89a18.65,18.65,0,0,0-2.83,2.55l-1,1Z"/><path class="cls-1" d="M258.77,36.45c-6.19,0-8.65,0-9.38,0,.51-.55,2-2,2.45-2.39.29-.22.85-.64,1.24-.91.69-.48,1.16-.81,2.31-1.64a19.54,19.54,0,0,0,2.75-2.64A14.29,14.29,0,0,1,261.4,26a5.26,5.26,0,0,0,1.93-1.7,4.24,4.24,0,0,0,.33-1.71,3.77,3.77,0,0,1,1.11-2.73,5,5,0,0,1,1.55-1c1.32-.68,1.81-1,2.07-1.63a3.71,3.71,0,0,0,.14-2c-.1-1.29,0-2,.41-2.38.07-.07.1-.09.18-.09a3.52,3.52,0,0,1,.71.16c1.41.41,2.87,1.41,6.24,4.32a11.83,11.83,0,0,0,2.4,1.86.57.57,0,0,0,.18,0c.35,0,.79-.29,1.8-1.18,1.31-1.13,1.82-1.42,2-1.45a1.06,1.06,0,0,1,.26,0,2,2,0,0,1,.85.19,28.1,28.1,0,0,1,3.72,2.75,3.67,3.67,0,0,0,1,.76,34.19,34.19,0,0,1-3.76,3.11,2.51,2.51,0,0,1-1.72.64h-.33c-.95,0-1.24.24-2.29,1.45-1.29,1.52-3.12,3.61-3.59,4.12a10,10,0,0,1-3.55,2.6c-1.36.6-1.89,1.07-4.07,3.66l-.58.7Zm-6-1.48a1.44,1.44,0,0,0-.79.43.36.36,0,0,0-.12.39.31.31,0,0,0,.3.21,1.68,1.68,0,0,0,.84-.53.27.27,0,0,0,.08-.24A.3.3,0,0,0,252.73,35Zm8-6.74a1.55,1.55,0,0,0-.72.32,9.14,9.14,0,0,0-2,1.88,11.58,11.58,0,0,1-1,1c-.14.12-.85.62-1.75,1.24-1.49,1-1.56,1.12-1.58,1.26a.33.33,0,0,0,.06.25l0,.06.14,0c.18,0,.45-.14,1.63-.94A10.73,10.73,0,0,0,258.47,31a9.39,9.39,0,0,1,2-1.91c.38-.23.51-.37.51-.53A.28.28,0,0,0,260.72,28.23Z"/><path class="cls-1" d="M418.93,35.76c-.54-.41-1.54-1.18-2.22-1.73a27.4,27.4,0,0,0-4.74-3.3,9.82,9.82,0,0,0-3.46-1.11,6.59,6.59,0,0,1-3.73-1.45,21.33,21.33,0,0,1-3.07-2.38,11.29,11.29,0,0,0-2.5-1.87,3.27,3.27,0,0,0-1.44-.35l-.46,0c-.29,0-.53,0-.74,0a1.66,1.66,0,0,1-.62-.09,7.8,7.8,0,0,1-1.48-1.17l-1.16-1-.3-.24a3.75,3.75,0,0,0,1.67-1c3-2.55,3.79-3.11,4.65-3.15h.18a2.09,2.09,0,0,1,1.36.59,3.54,3.54,0,0,0,.84.5h.16c.53,0,1.24-.45,3.3-2.08a10.75,10.75,0,0,1,3.06-2,2.52,2.52,0,0,1,.83-.1h.39v.46a4,4,0,0,0,.47,2c.52,1.11,1.13,1.78,3.84,4.21l2.09,1.9c2.12,2,2.29,2.11,2.46,2.11a.28.28,0,0,0,.29-.16c.08-.21-.05-.4-1.51-1.77-.8-.75-2.15-2-2.93-2.68-2.94-2.63-3.6-3.44-3.94-4.79a4.33,4.33,0,0,1-.08-1.14,5.24,5.24,0,0,1,1.21.5,73.26,73.26,0,0,1,7.41,5.25c.75.58.94.68,1.08.68h0l.07,0a.4.4,0,0,1,.16.06,1.55,1.55,0,0,0,.75.19,5.58,5.58,0,0,0,1.59-.35,3.73,3.73,0,0,1,1.17-.23,1.82,1.82,0,0,1,.79.18,8.73,8.73,0,0,1,1.92,1.43c2.76,2.53,9.58,9.25,9.87,9.68a20.44,20.44,0,0,1,1.33,4.71c0,.1,0,.1-.19.17s-1.22.09-8.88.09h-8.62Z"/><path class="cls-1" d="M225.9,36.45c-9.82,0-12.34,0-12.56-.08a.24.24,0,0,1,0-.09,60.2,60.2,0,0,1,3.32-6.11,48.62,48.62,0,0,1,5.64-7.69,3.74,3.74,0,0,1,1.25-1,.61.61,0,0,1,.24,0,1.58,1.58,0,0,1,1,.41c.18.16,1.47,2.06,2.68,4s1.55,2.11,3,2.22c1.72.14,2.18.53,4.51,3.8.85,1.18,2.6,3.71,3.14,4.53l0,.08Z"/><path class="cls-1" d="M282.81,36.44l-3.19,0,.69-.53a27.8,27.8,0,0,0,5-4.8,18.34,18.34,0,0,1,2.34-2.42,2.48,2.48,0,0,1,.46-.24l.06,0a2.21,2.21,0,0,0-.29,1.65c.13.57.53,1.09,1.7,2.25.59.57,1.45,1.47,1.92,2L293.06,36l.42.45-3.28,0h-7.39Z"/><path class="cls-1" d="M294.43,36.44l-.69-.76c-1.52-1.71-2.55-2.81-3.67-3.92-1.34-1.34-1.52-1.65-1.52-2.18a1.57,1.57,0,0,1,.41-1l.14-.15a5.48,5.48,0,0,1,.69.61c.14.15.46.56.73.91a3.72,3.72,0,0,0,2.62,1.8l1,.16a7.4,7.4,0,0,1,2.43,1.21,47.23,47.23,0,0,0,4.75,2.61l1.42.72c-1,0-3,0-3.81,0h-4.47Z"/></g></g></svg>