<svg xmlns="http://www.w3.org/2000/svg" viewBox="0 0 443.4 39.9"><defs><style>.cls-1{fill:#293f00;fill-rule:evenodd;}</style></defs><g id="Layer_2" data-name="Layer 2"><g id="BACKGROUND"><path class="cls-1" d="M129,39.89H85.41c-3.82-3-7.69-6.62-11.76-7.3a4,4,0,0,1,1.54-.78c.63.58,4.33-4.1,5.22-4.86,2.79,2.43,4.27-2.34,6.18-3.76,1.71-.68,11.32-12.19,14.08-11.5,4.44-.76,10.52-14.62,11.7-11.13,5,6.09.44,7.54,4.22,11.63,2.68,2.51.21,4.17,2.27,6.71,2.92,4.09.44,8.61,3,12.28.81-.48-.22-2.08-.51-4-.87-2.4.36-4.35-.67-6.45a31.56,31.56,0,0,1,6.85,5.33c1.53,1.34,1.63,2,2,1.18-2.38-4.12-9-6.06-10.86-10.23.69-4.42-2.09-4.75-3.1-7.94.8-3.17-.69-6.35-2.69-9,3.92,1.72,9.35,9.16,13.17,11,2.59-1.56,4.84,1.39,7.34,3.41,3,3.21,7,1.81,9.76,5,.55.15,4.48,5.33,5.12,5.91.59.77,1.64.58,2.38.91S154.43,30.6,155,31c1.72,1.24,2.58-.42,4.51,1.81,4.43,4.33,7.25,3.23,12.57,7.08Zm-48.15-7.7c-.17,0-.4.13-.78.45C78.11,34.52,82.25,32.84,80.87,32.19Zm16.9-16.73c-4.29,2.65-7.08,7-10.73,10.19-1.56.91-1.82,2.73-3.63,3.9-1.14,1-1.56,1.14-.8,1.52A94.75,94.75,0,0,0,92,21.62C92.44,19.61,98.59,17.06,97.77,15.46Z"/><path class="cls-1" d="M55.55,35.76c-4.26-7.32-4.3-1.79-9.64-8.82,2.28-.84,5.52-5,7.61-4.88,4.39,2.3,2.83,4.87,7.92.45,2.8-2.29,3.3-2.41,5.94-2.64,2.1-1.27,5.15-4.67,7-3.71,2.49,2.1,7.39,7.81,10.39,8.05C81,28.83,83,26,79.76,26.48c-.73.72-4.14,5-4.5,4.55a5,5,0,0,0-2.07,1c-7.7-9.5-5.7-1-12.69-.62A43.11,43.11,0,0,0,55.55,35.76Z"/><path class="cls-1" d="M212.5,39.89c-2.05-4.09-7.17-6.78-8.89-10.66a6.91,6.91,0,0,0-2.93-4c-5.74-3.72-1.8-5.22-4.1-8.92,10.44,10,4.4.61,10.81,7.2,3,3.21,1.82,1.34,5,2.34,3.88,2.33,12.82,9.06,15.53,14C227.76,39.94,215.2,39.87,212.5,39.89Z"/><path class="cls-1" d="M173.43,39.89l-2.05-1.38c7.37-6.17,4.18-7.22,11.68-13.5,4.7-4.65,3.79,1.88,9.29-5.33a17.52,17.52,0,0,1,3.24-3.26c2.89,3.12-1.52,5.41,4.33,9.15,2,1.59,2.53,2.29,3,3.91,1.24,3.6,6.74,6.55,8.62,10.36C211.61,39.93,179.87,39.88,173.43,39.89Zm2.12-4.22c-.24,0-2.6,1.61-1.59,1.88C174.12,37.62,176.76,35.88,175.55,35.67ZM185.63,25c-2.93.76-4.32,4.32-6.63,6.14-1,.69-.94,1.76-1.91,2.8-.6.84-.63.59-.34,1,.85.18,1.43-1.34,1.87-2,1.43-1.89,2.95-3.43,4.54-5.38C183.71,26.43,186.68,25.73,185.63,25Z"/><path class="cls-1" d="M170.09,37.69c-2.43-1.58-5.06-1.56-7.37-3.33-2.1-1.32-4.26-4.25-6.81-3.62-1.26-.57-3.9-5.42-6-5.38-1.71-.19-2.86-2.88-4.12-4.13.65.09,2.88-2.47,3.73-2.42,2.82-.86,7.52,6,9.23,5.86.53.6,3.94-3,4.73-3.45,1.74.41,5.09,3.9,6.6,4.42,3-.52,5.49.95,8.76,2.48-3.38,4-3.6,6.57-8.15,10Z"/><path class="cls-1" d="M2.87,39.89A16.85,16.85,0,0,1,0,39.81,84.72,84.72,0,0,1,14.45,24.5c2.63.62,7.83-5.44,9.6-5.44-1.28,1.27-6.22,8.66-7.22,8.42-4.55,1.45-7.76,8.91-11.17,12.41Z"/><path class="cls-1" d="M19.2,39.88l-12.55,0C10.16,36.17,13.05,29,17.71,28c1.8-1.65,5.33-6.74,7.15-8.76.35,0,4.82,4.53,5.69,4.51,2.37.4,6-4,8.09-.49.53.82,1.25-.07,2,.45C43.2,26,44.34,26,46.9,29.14c2.09,3,3.46,2.23,5.59,3.53,1.2,1.6,4,5.85,5.12,7.19C45.9,39.88,30.91,39.89,19.2,39.88Zm33.73-2.55c-.82.05.64,2.31,1,1.7C54.35,38.72,53.29,37.38,52.93,37.33ZM40.11,25.69c-1.55,0,3.54,4.07,4,4.23,2.24,1.12,2.28,2.89,4.52,3.78,1.35.37,2.15,2,3,2.51,1-2.17-4-3.12-5-5.1C44.7,29.28,42.05,27.36,40.11,25.69Z"/><path class="cls-1" d="M58.6,39.89c-.87-1.1-1.89-2.43-2.62-3.49,2.44-2.45,4.17-4.52,6.79-4.56,1.6-.13,4.19-5.06,6.13-3.14,1.48.83,3.9,4.87,5.58,5.19,2-1,6.86,4.2,9.77,6Z"/><path class="cls-1" d="M344.52,39.89H300.91c-3.82-3-7.69-6.62-11.76-7.3a4,4,0,0,1,1.54-.78c.63.58,4.33-4.1,5.22-4.86,2.79,2.43,4.27-2.34,6.18-3.76,1.71-.68,11.32-12.19,14.08-11.5,4.44-.76,10.52-14.62,11.7-11.13,5,6.09.44,7.54,4.22,11.63,2.68,2.51.21,4.17,2.27,6.71,2.92,4.09.44,8.61,3,12.28.81-.48-.22-2.08-.51-4-.87-2.4.36-4.35-.66-6.45A31.76,31.76,0,0,1,343,26.05c1.53,1.34,1.63,2,2,1.18-2.38-4.12-9-6.06-10.86-10.23.69-4.42-2.09-4.75-3.1-7.94.8-3.17-.69-6.35-2.69-9,3.92,1.72,9.35,9.16,13.17,11,2.59-1.56,4.84,1.39,7.34,3.41,3,3.21,7,1.81,9.76,5,.55.15,4.48,5.33,5.12,5.91.59.77,1.64.58,2.38.91s3.75,4.29,4.32,4.69c1.72,1.24,2.58-.42,4.51,1.81,4.44,4.33,7.25,3.23,12.57,7.08Zm-48.15-7.7c-.17,0-.4.13-.78.45C293.62,34.52,297.75,32.84,296.37,32.19Zm16.9-16.73c-4.29,2.65-7.08,7-10.73,10.19-1.56.91-1.82,2.73-3.63,3.9-1.14,1-1.56,1.14-.8,1.52a94.75,94.75,0,0,0,9.35-9.45C307.94,19.61,314.09,17.06,313.27,15.46Z"/><path class="cls-1" d="M271.05,35.76c-4.26-7.32-4.3-1.79-9.64-8.82,2.28-.84,5.52-5,7.61-4.88,4.39,2.3,2.83,4.87,7.92.45,2.8-2.29,3.3-2.41,5.94-2.64,2.1-1.27,5.15-4.67,7-3.71,2.49,2.1,7.39,7.81,10.39,8.05-3.7,4.62-1.69,1.83-5,2.27-.73.72-4.14,5-4.5,4.55a5,5,0,0,0-2.07,1c-7.7-9.5-5.7-1-12.69-.62A43.11,43.11,0,0,0,271.05,35.76Z"/><path class="cls-1" d="M428,39.89c-2.05-4.09-7.17-6.78-8.89-10.66a6.91,6.91,0,0,0-2.93-4c-5.74-3.72-1.8-5.22-4.1-8.92,10.44,10,4.4.61,10.81,7.2,2.95,3.21,1.82,1.34,5,2.34,3.88,2.33,12.82,9.06,15.53,14C443.26,39.94,430.7,39.87,428,39.89Z"/><path class="cls-1" d="M388.93,39.89l-2.05-1.38c7.37-6.17,4.18-7.22,11.68-13.5,4.7-4.65,3.8,1.88,9.29-5.33a17.52,17.52,0,0,1,3.24-3.26c2.89,3.12-1.52,5.41,4.33,9.15,2,1.59,2.54,2.29,3,3.91,1.24,3.6,6.74,6.55,8.62,10.36C427.11,39.93,395.37,39.88,388.93,39.89Zm2.12-4.22c-.24,0-2.6,1.61-1.59,1.88C389.62,37.62,392.26,35.88,391.05,35.67ZM401.13,25c-2.93.76-4.32,4.32-6.63,6.14-1,.69-.94,1.76-1.91,2.8-.6.84-.63.59-.34,1,.85.18,1.43-1.34,1.87-2,1.43-1.89,2.95-3.43,4.54-5.38C399.21,26.43,402.18,25.73,401.13,25Z"/><path class="cls-1" d="M385.59,37.69c-2.43-1.58-5.06-1.56-7.37-3.33-2.1-1.32-4.26-4.25-6.81-3.62-1.26-.57-3.9-5.42-6-5.38-1.71-.19-2.86-2.88-4.12-4.13.65.09,2.88-2.47,3.73-2.42,2.82-.86,7.52,6,9.23,5.86.53.6,3.94-3,4.73-3.45,1.74.41,5.09,3.9,6.6,4.42,3-.52,5.49.95,8.76,2.48-3.38,4-3.6,6.57-8.15,10Z"/><path class="cls-1" d="M218.37,39.89a16.85,16.85,0,0,1-2.87-.08A84.72,84.72,0,0,1,230,24.5c2.63.62,7.83-5.44,9.6-5.44-1.28,1.27-6.22,8.66-7.22,8.42-4.55,1.45-7.76,8.91-11.17,12.41Z"/><path class="cls-1" d="M234.7,39.88l-12.55,0c3.51-3.69,6.4-10.9,11.06-11.85,1.8-1.65,5.33-6.74,7.15-8.76.35,0,4.82,4.53,5.69,4.51,2.37.4,6-4,8.09-.49.53.82,1.25-.07,2,.45,2.58,2.27,3.72,2.31,6.28,5.42,2.09,3,3.46,2.23,5.59,3.53,1.2,1.6,4,5.85,5.12,7.19C261.4,39.88,246.41,39.89,234.7,39.88Zm33.73-2.55c-.82.05.64,2.31,1.05,1.7C269.85,38.72,268.79,37.38,268.43,37.33ZM255.61,25.69c-1.55,0,3.54,4.07,4.05,4.23,2.24,1.12,2.28,2.89,4.52,3.78,1.35.37,2.15,2,3,2.51,1-2.17-4.05-3.12-5-5.1C260.2,29.28,257.55,27.36,255.61,25.69Z"/><path class="cls-1" d="M274.1,39.89c-.87-1.1-1.88-2.43-2.62-3.49,2.44-2.45,4.17-4.52,6.79-4.56,1.6-.13,4.19-5.06,6.13-3.14,1.48.83,3.9,4.87,5.58,5.19,2-1,6.86,4.2,9.77,6Z"/></g></g></svg>