<svg xmlns="http://www.w3.org/2000/svg" viewBox="0 0 318.57 14.67"><defs><style>.cls-1{fill:#293f00;fill-rule:evenodd;}</style></defs><g id="Layer_2" data-name="Layer 2"><g id="OBJECTS"><path class="cls-1" d="M47.21,14.67h-16c-1.33-1.05-2.9-2.46-4.3-2.68a6.52,6.52,0,0,0,2.47-2.06c.84.78,1.41-.44,1.93-1,.74-.8,1.06-.92,2.8-2.62,1.7-1.42,1.46-1.83,2.69-1.94C38.33,3.54,38.7,2.8,40.05.91c.52-.72.5-.82.83-.91a6,6,0,0,1,1.25,2.36c0,.42-.22,1.11,0,1.46s1.13,1.28,1,1.63a2.44,2.44,0,0,0,0,1c.94,1.22.79,2.22.91,3.5.26.59.11,1.38.53,1.51.17-.24-.11-.76-.24-1.46-.32-.87.13-1.59-.24-2.36a21.67,21.67,0,0,1,3.15,2.51s.1,0,.1-.13c-.87-1.5-3.31-2.21-4-3.74.32-1.28-.81-1.94-1.13-2.9a4,4,0,0,0-1-3.3c1.43.63,3.43,3.36,4.82,4,.95-.57,1.77.5,2.69,1.24,1.1,1.18,2.57.67,3.57,1.84.2.06,1.64,2,1.87,2.17a5.83,5.83,0,0,1,2.46,2c.6.42,1-.09,1.65.67C60,13.66,61,13.26,63,14.67ZM29.59,11.85c-.08,0-.54.33-.47.43C29.22,12.53,30,11.94,29.59,11.85Zm6.18-6.12c-1.55,1-2.59,2.56-3.92,3.73-.57.33-.67,1-1.33,1.42-.42.36-.57.42-.29.56a4.06,4.06,0,0,0,1.23-1.17C32.18,9.3,33,9,33.65,8,33.9,7.14,35.93,6.48,35.77,5.73Z"/><path class="cls-1" d="M20.33,13.15c-.4-.61-1.11-1.75-1.59-1.63-.76,0-1.35-1-1.94-1.59.83-.31,2-1.84,2.78-1.79,1.61.82,1.06,1.8,2.9.17a2.91,2.91,0,0,1,2.18-1C28.08,4,28,8.28,31,8.93c-.21.23-.65.9-1,1s-.58-.43-.84-.17a5.87,5.87,0,0,1-2.4,2c-2.63-3.39-2.17-.44-4.64-.23A16,16,0,0,0,20.33,13.15Z"/><path class="cls-1" d="M77.76,14.67c-.75-1.5-2.63-2.49-3.26-3.9A2.56,2.56,0,0,0,73.43,9.3c-1.91-1.1-.76-2-1.5-3.26.49.23,2,2,2.29,1.84.86-.29.61-.16,1.66.8.14.09.71.81,1,.76a1.17,1.17,0,0,1,.85.09c1.41.84,4.7,3.33,5.68,5.12C83.39,14.68,78.7,14.67,77.76,14.67Z"/><path class="cls-1" d="M63.46,14.67l-.75-.51c2.7-2.25,1.52-2.63,4.27-4.94,1-.91.89-.73,1.74-.55.52.18,2.23-2.23,2.85-2.59.94,1.12-.33,2.28,1.58,3.35.73.58.93.83,1.09,1.43.46,1.31,2.48,2.4,3.16,3.79C77.47,14.68,65.79,14.66,63.46,14.67Zm.77-1.55c-.08,0-1,.59-.58.69C63.71,13.84,64.68,13.2,64.23,13.12Zm3.69-3.9c-1.07.28-1.58,1.58-2.42,2.25-.35.25-.35.64-.7,1s-.23.22-.13.37c.31.06.53-.49.69-.74.52-.7,1.08-1.26,1.66-2C67.24,9.71,68.27,9.53,67.92,9.22Z"/><path class="cls-1" d="M62.24,13.86c-.89-.58-1.85-.57-2.7-1.22-.74-.47-1.59-1.56-2.49-1.32-.46-.21-1.43-2-2.18-2s-1-1-1.51-1.51c2.14-2.21,3.13.62,4.74,1.26.2.22,1.44-1.09,1.73-1.26.64.15,1.86,1.42,2.42,1.61,1.1-.19,2,.35,3.2.91a4.64,4.64,0,0,0-1.19,1.9A20.25,20.25,0,0,1,62.47,14Z"/><path class="cls-1" d="M1.05,14.67a6,6,0,0,1-1,0A30.55,30.55,0,0,1,5.29,9c1,.22,2.86-2,3.51-2-.47.47-2.28,3.17-2.64,3.09-1.67.53-2.84,3.25-4.09,4.54Z"/><path class="cls-1" d="M7,14.66H2.43c1.29-1.35,2.34-4,4.05-4.34.66-.6,1.95-2.47,2.62-3.2.12,0,1.76,1.65,2.08,1.64.86.15,2.2-1.45,3-.17.19.29.46,0,.72.16a12.73,12.73,0,0,1,2.3,2c.77,1.1,1.26.82,2.05,1.29.43.59,1.45,2.15,1.87,2.64Zm12.35-.93c-.3,0,.17.64.28.67C20,14.36,19.51,13.76,19.37,13.73ZM14.68,9.47c-.46.16,1.21,1.4,1.48,1.55.82.41.83,1.05,1.65,1.38.39,0,1.52,1.56,1.1.57-.48-.81-1.3-.72-1.81-1.52C16.36,10.78,15.38,10.08,14.68,9.47Z"/><path class="cls-1" d="M21.44,14.67c-.32-.41-.69-.89-1-1.28.9-.9,1.52-1.65,2.49-1.67.58-.05,1.53-1.85,2.24-1.15.54.31,1.43,1.78,2,1.9.75-.36,2.51,1.54,3.58,2.2Z"/><path class="cls-1" d="M125.57,14.67H109.62c-1.34-1.05-2.9-2.46-4.31-2.68a6.45,6.45,0,0,0,2.47-2.06c.85.78,1.42-.44,1.93-1,.74-.8,1.07-.92,2.8-2.62,1.71-1.42,1.46-1.83,2.69-1.94,1.5-.81,1.87-1.55,3.22-3.44.52-.72.49-.82.83-.91a6.11,6.11,0,0,1,1.25,2.36c0,.42-.23,1.11,0,1.46s1.13,1.28,1,1.63a2.44,2.44,0,0,0,0,1c.93,1.22.78,2.22.9,3.5.26.59.11,1.38.53,1.51.17-.24-.11-.76-.24-1.46-.31-.87.13-1.59-.24-2.36a20.65,20.65,0,0,1,3.15,2.51s.1,0,.1-.13c-.86-1.5-3.31-2.21-4-3.74.31-1.28-.82-1.94-1.14-2.9a4,4,0,0,0-1-3.3c1.43.63,3.43,3.36,4.82,4,.94-.57,1.77.5,2.68,1.24,1.1,1.18,2.58.67,3.57,1.84.21.06,1.64,2,1.88,2.17a5.8,5.8,0,0,1,2.45,2c.61.42,1-.09,1.65.67,1.62,1.58,2.65,1.18,4.6,2.59ZM108,11.85c-.08,0-.53.33-.47.43C107.58,12.53,108.32,11.94,108,11.85Zm6.19-6.12c-1.56,1-2.59,2.56-3.93,3.73-.57.33-.66,1-1.33,1.42-.41.36-.57.42-.29.56a4.06,4.06,0,0,0,1.23-1.17C110.55,9.3,111.35,9,112,8,112.26,7.14,114.29,6.48,114.14,5.73Z"/><path class="cls-1" d="M98.69,13.15c-.4-.61-1.11-1.75-1.59-1.63-.75,0-1.34-1-1.94-1.59.84-.31,2-1.84,2.79-1.79,1.6.82,1.06,1.8,2.89.17a2.92,2.92,0,0,1,2.18-1c3.42-3.38,3.38.94,6.35,1.59-.21.23-.65.9-1,1s-.58-.43-.83-.17a6,6,0,0,1-2.41,2c-2.63-3.39-2.16-.44-4.64-.23A16,16,0,0,0,98.69,13.15Z"/><path class="cls-1" d="M156.12,14.67c-.75-1.5-2.63-2.49-3.25-3.9a2.54,2.54,0,0,0-1.08-1.47c-1.91-1.1-.75-2-1.5-3.26.5.23,2,2,2.3,1.84.85-.29.6-.16,1.66.8.14.09.71.81,1,.76a1.16,1.16,0,0,1,.85.09c1.41.84,4.7,3.33,5.68,5.12C161.75,14.68,157.06,14.67,156.12,14.67Z"/><path class="cls-1" d="M141.82,14.67l-.75-.51c2.7-2.25,1.52-2.63,4.28-4.94,1-.91.88-.73,1.73-.55.52.18,2.23-2.23,2.85-2.59.95,1.12-.33,2.28,1.58,3.35a2.38,2.38,0,0,1,1.1,1.43c.45,1.31,2.47,2.4,3.15,3.79C155.83,14.68,144.15,14.66,141.82,14.67Zm.78-1.55c-.09,0-.95.59-.58.69C142.08,13.84,143,13.2,142.6,13.12Zm3.69-3.9c-1.07.28-1.58,1.58-2.43,2.25-.35.25-.34.64-.7,1s-.23.22-.12.37c.31.06.52-.49.68-.74.53-.7,1.08-1.26,1.66-2C145.6,9.71,146.63,9.53,146.29,9.22Z"/><path class="cls-1" d="M140.6,13.86c-.89-.58-1.85-.57-2.7-1.22-.74-.47-1.59-1.56-2.49-1.32-.46-.21-1.42-2-2.18-2s-1-1-1.51-1.51c2.14-2.21,3.14.62,4.75,1.26.19.22,1.44-1.09,1.73-1.26.63.15,1.86,1.42,2.41,1.61,1.1-.19,2,.35,3.21.91a4.57,4.57,0,0,0-1.2,1.9A20.25,20.25,0,0,1,140.83,14Z"/><path class="cls-1" d="M79.41,14.67a6,6,0,0,1-1,0A31.24,31.24,0,0,1,83.65,9c1,.22,2.87-2,3.52-2-.47.47-2.28,3.17-2.65,3.09-1.66.53-2.84,3.25-4.09,4.54Z"/><path class="cls-1" d="M85.39,14.66H80.8c1.28-1.35,2.34-4,4-4.34.65-.6,1.94-2.47,2.61-3.2.13,0,1.76,1.65,2.08,1.64.87.15,2.21-1.45,3-.17.2.29.46,0,.72.16a12.4,12.4,0,0,1,2.3,2c.77,1.1,1.27.82,2,1.29.44.59,1.45,2.15,1.88,2.64Zm12.34-.93c-.29,0,.18.64.29.67C98.37,14.36,97.88,13.76,97.73,13.73ZM93,9.47c-.45.16,1.22,1.4,1.48,1.55.82.41.84,1.05,1.66,1.38.38,0,1.51,1.56,1.09.57-.48-.81-1.29-.72-1.81-1.52C94.72,10.78,93.75,10.08,93,9.47Z"/><path class="cls-1" d="M99.8,14.67c-.31-.41-.68-.89-1-1.28.89-.9,1.52-1.65,2.48-1.67.59-.05,1.53-1.85,2.24-1.15.55.31,1.43,1.78,2.05,1.9.74-.36,2.51,1.54,3.57,2.2Z"/><path class="cls-1" d="M203.82,14.67H187.87c-1.33-1.05-2.9-2.46-4.31-2.68A6.55,6.55,0,0,0,186,9.93c.84.78,1.41-.44,1.92-1,.74-.8,1.07-.92,2.8-2.62,1.71-1.42,1.47-1.83,2.69-1.94,1.5-.81,1.87-1.55,3.22-3.44.52-.72.49-.82.83-.91a6,6,0,0,1,1.25,2.36c0,.42-.23,1.11,0,1.46s1.14,1.28,1,1.63a2.44,2.44,0,0,0,0,1c.93,1.22.78,2.22.9,3.5.26.59.11,1.38.54,1.51.16-.24-.12-.76-.24-1.46-.32-.87.12-1.59-.25-2.36a21.22,21.22,0,0,1,3.16,2.51s.09,0,.09-.13c-.86-1.5-3.31-2.21-4-3.74.31-1.28-.82-1.94-1.14-2.9a4,4,0,0,0-1-3.3c1.43.63,3.43,3.36,4.82,4,.94-.57,1.77.5,2.68,1.24C206.53,6.54,208,6,209,7.2c.2.06,1.63,2,1.87,2.17a5.8,5.8,0,0,1,2.45,2c.61.42,1-.09,1.65.67,1.62,1.58,2.65,1.18,4.6,2.59Zm-17.61-2.82c-.08,0-.54.33-.48.43C185.83,12.53,186.58,11.94,186.21,11.85Zm6.18-6.12c-1.56,1-2.59,2.56-3.93,3.73-.57.33-.66,1-1.32,1.42-.42.36-.58.42-.3.56a4.06,4.06,0,0,0,1.23-1.17c.73-1,1.53-1.26,2.19-2.29C190.52,7.14,192.54,6.48,192.39,5.73Z"/><path class="cls-1" d="M176.94,13.15c-.4-.61-1.11-1.75-1.59-1.63-.75,0-1.34-1-1.94-1.59.84-.31,2-1.84,2.79-1.79,1.6.82,1.06,1.8,2.9.17a2.89,2.89,0,0,1,2.17-1c3.42-3.38,3.38.94,6.35,1.59-.21.23-.65.9-1,1s-.57-.43-.83-.17a6,6,0,0,1-2.4,2c-2.64-3.39-2.17-.44-4.65-.23A16,16,0,0,0,176.94,13.15Z"/><path class="cls-1" d="M234.37,14.67c-.75-1.5-2.62-2.49-3.25-3.9a2.56,2.56,0,0,0-1.07-1.47c-1.92-1.1-.76-2-1.5-3.26.49.23,2,2,2.29,1.84.85-.29.61-.16,1.66.8.14.09.71.81,1,.76a1.16,1.16,0,0,1,.85.09c1.41.84,4.7,3.33,5.69,5.12C240,14.68,235.32,14.67,234.37,14.67Z"/><path class="cls-1" d="M220.08,14.67l-.76-.51c2.7-2.25,1.52-2.63,4.28-4.94,1-.91.88-.73,1.73-.55.52.18,2.23-2.23,2.85-2.59.95,1.12-.33,2.28,1.59,3.35a2.4,2.4,0,0,1,1.09,1.43c.45,1.31,2.47,2.4,3.16,3.79C234.08,14.68,222.4,14.66,220.08,14.67Zm.77-1.55c-.09,0-.95.59-.58.69C220.33,13.84,221.29,13.2,220.85,13.12Zm3.69-3.9c-1.07.28-1.58,1.58-2.43,2.25-.35.25-.34.64-.7,1s-.23.22-.12.37c.31.06.52-.49.68-.74.53-.7,1.08-1.26,1.67-2C223.86,9.71,224.88,9.53,224.54,9.22Z"/><path class="cls-1" d="M218.85,13.86c-.89-.58-1.85-.57-2.7-1.22-.74-.47-1.59-1.56-2.49-1.32-.46-.21-1.42-2-2.18-2s-1-1-1.5-1.51c2.13-2.21,3.13.62,4.74,1.26.19.22,1.44-1.09,1.73-1.26.63.15,1.86,1.42,2.41,1.61,1.1-.19,2,.35,3.21.91a4.57,4.57,0,0,0-1.2,1.9A19.94,19.94,0,0,1,219.09,14Z"/><path class="cls-1" d="M157.67,14.67a6,6,0,0,1-1,0A30.83,30.83,0,0,1,161.9,9c1,.22,2.87-2,3.52-2-.47.47-2.28,3.17-2.65,3.09-1.66.53-2.84,3.25-4.08,4.54Z"/><path class="cls-1" d="M163.64,14.66h-4.59c1.28-1.35,2.34-4,4-4.34.65-.6,2-2.47,2.61-3.2.13,0,1.76,1.65,2.08,1.64.87.15,2.21-1.45,3-.17.2.29.46,0,.73.16a13.08,13.08,0,0,1,2.3,2c.76,1.1,1.26.82,2,1.29.44.59,1.45,2.15,1.88,2.64ZM176,13.73c-.29,0,.18.64.29.67C176.62,14.36,176.13,13.76,176,13.73Zm-4.69-4.26c-.45.16,1.22,1.4,1.48,1.55.82.41.84,1.05,1.66,1.38.38,0,1.51,1.56,1.1.57-.49-.81-1.3-.72-1.82-1.52C173,10.78,172,10.08,171.29,9.47Z"/><path class="cls-1" d="M178.06,14.67c-.32-.41-.69-.89-1-1.28.89-.9,1.52-1.65,2.48-1.67.59-.05,1.54-1.85,2.25-1.15.54.31,1.42,1.78,2,1.9.74-.36,2.51,1.54,3.57,2.2Z"/><path class="cls-1" d="M282.39,14.67h-16c-1.33-1.05-2.9-2.46-4.3-2.68a6.52,6.52,0,0,0,2.47-2.06c.84.78,1.41-.44,1.93-1,.73-.8,1.06-.92,2.79-2.62,1.71-1.42,1.47-1.83,2.7-1.94,1.49-.81,1.86-1.55,3.21-3.44.52-.72.5-.82.83-.91a6,6,0,0,1,1.25,2.36c0,.42-.22,1.11,0,1.46s1.13,1.28,1,1.63a2.44,2.44,0,0,0,0,1c.94,1.22.78,2.22.91,3.5.26.59.11,1.38.53,1.51.17-.24-.11-.76-.24-1.46-.32-.87.13-1.59-.25-2.36a21.22,21.22,0,0,1,3.16,2.51s.09,0,.09-.13c-.86-1.5-3.3-2.21-4-3.74.32-1.28-.81-1.94-1.13-2.9a4,4,0,0,0-1-3.3c1.43.63,3.43,3.36,4.82,4,.95-.57,1.77.5,2.69,1.24,1.1,1.18,2.57.67,3.57,1.84.2.06,1.64,2,1.87,2.17a5.74,5.74,0,0,1,2.45,2c.61.42,1.05-.09,1.65.67,1.63,1.58,2.66,1.18,4.6,2.59Zm-17.62-2.82c-.08,0-.54.33-.47.43C264.4,12.53,265.14,11.94,264.77,11.85ZM271,5.73c-1.55,1-2.59,2.56-3.92,3.73-.57.33-.67,1-1.33,1.42-.42.36-.57.42-.29.56a4.18,4.18,0,0,0,1.23-1.17c.72-1,1.52-1.26,2.19-2.29C269.08,7.14,271.11,6.48,271,5.73Z"/><path class="cls-1" d="M255.5,13.15c-.4-.61-1.1-1.75-1.59-1.63-.75,0-1.34-1-1.93-1.59.83-.31,2-1.84,2.78-1.79,1.6.82,1.06,1.8,2.9.17a2.91,2.91,0,0,1,2.18-1c3.42-3.38,3.37.94,6.34,1.59-.21.23-.65.9-1,1s-.58-.43-.84-.17a5.94,5.94,0,0,1-2.4,2c-2.63-3.39-2.17-.44-4.64-.23A16.92,16.92,0,0,0,255.5,13.15Z"/><path class="cls-1" d="M312.93,14.67c-.74-1.5-2.62-2.49-3.25-3.9a2.56,2.56,0,0,0-1.07-1.47c-1.91-1.1-.76-2-1.5-3.26.49.23,2,2,2.29,1.84.86-.29.61-.16,1.66.8.14.09.71.81,1,.76a1.17,1.17,0,0,1,.85.09c1.41.84,4.7,3.33,5.68,5.12C318.57,14.68,313.88,14.67,312.93,14.67Z"/><path class="cls-1" d="M298.64,14.67l-.75-.51c2.7-2.25,1.51-2.63,4.27-4.94,1-.91.88-.73,1.74-.55.51.18,2.23-2.23,2.85-2.59.94,1.12-.34,2.28,1.58,3.35.73.58.93.83,1.09,1.43.46,1.31,2.48,2.4,3.16,3.79C312.65,14.68,301,14.66,298.64,14.67Zm.77-1.55c-.09,0-1,.59-.58.69C298.89,13.84,299.86,13.2,299.41,13.12Zm3.69-3.9c-1.07.28-1.58,1.58-2.42,2.25-.35.25-.35.64-.7,1s-.23.22-.13.37c.31.06.52-.49.69-.74.52-.7,1.08-1.26,1.66-2C302.42,9.71,303.45,9.53,303.1,9.22Z"/><path class="cls-1" d="M297.41,13.86c-.89-.58-1.85-.57-2.69-1.22-.75-.47-1.59-1.56-2.49-1.32-.46-.21-1.43-2-2.18-2s-1.05-1-1.51-1.51c2.14-2.21,3.13.62,4.74,1.26.2.22,1.44-1.09,1.73-1.26.64.15,1.86,1.42,2.42,1.61,1.1-.19,2,.35,3.2.91a4.53,4.53,0,0,0-1.19,1.9A20.25,20.25,0,0,1,297.65,14Z"/><path class="cls-1" d="M236.23,14.67a6,6,0,0,1-1,0A30.55,30.55,0,0,1,240.47,9c1,.22,2.86-2,3.51-2-.47.47-2.28,3.17-2.64,3.09-1.67.53-2.84,3.25-4.09,4.54Z"/><path class="cls-1" d="M242.2,14.66h-4.59c1.29-1.35,2.34-4,4-4.34.66-.6,2-2.47,2.61-3.2.13,0,1.77,1.65,2.09,1.64.86.15,2.2-1.45,3-.17.19.29.46,0,.72.16a12.73,12.73,0,0,1,2.3,2c.77,1.1,1.26.82,2,1.29.44.59,1.46,2.15,1.88,2.64Zm12.35-.93c-.3,0,.17.64.28.67C255.19,14.36,254.69,13.76,254.55,13.73Zm-4.7-4.26c-.45.16,1.22,1.4,1.49,1.55.81.41.83,1.05,1.65,1.38.39,0,1.52,1.56,1.1.57-.48-.81-1.3-.72-1.81-1.52C251.53,10.78,250.56,10.08,249.85,9.47Z"/><path class="cls-1" d="M256.62,14.67c-.32-.41-.69-.89-1-1.28.9-.9,1.52-1.65,2.49-1.67.58-.05,1.53-1.85,2.24-1.15.54.31,1.43,1.78,2,1.9.75-.36,2.51,1.54,3.57,2.2Z"/></g></g></svg>